<svg id="my-svg" width="100%" xmlns="http://www.w3.org/2000/svg" xmlns:xlink="http://www.w3.org/1999/xlink" class="erDiagram" style="max-width: 1098.72px; background-color: white;" viewBox="0 0 1098.7249755859375 560.1499633789062" role="graphics-document document" aria-roledescription="er"><style>#my-svg{font-family:"trebuchet ms",verdana,arial,sans-serif;font-size:16px;fill:#333;}@keyframes edge-animation-frame{from{stroke-dashoffset:0;}}@keyframes dash{to{stroke-dashoffset:0;}}#my-svg .edge-animation-slow{stroke-dasharray:9,5!important;stroke-dashoffset:900;animation:dash 50s linear infinite;stroke-linecap:round;}#my-svg .edge-animation-fast{stroke-dasharray:9,5!important;stroke-dashoffset:900;animation:dash 20s linear infinite;stroke-linecap:round;}#my-svg .error-icon{fill:#552222;}#my-svg .error-text{fill:#552222;stroke:#552222;}#my-svg .edge-thickness-normal{stroke-width:1px;}#my-svg .edge-thickness-thick{stroke-width:3.5px;}#my-svg .edge-pattern-solid{stroke-dasharray:0;}#my-svg .edge-thickness-invisible{stroke-width:0;fill:none;}#my-svg .edge-pattern-dashed{stroke-dasharray:3;}#my-svg .edge-pattern-dotted{stroke-dasharray:2;}#my-svg .marker{fill:#333333;stroke:#333333;}#my-svg .marker.cross{stroke:#333333;}#my-svg svg{font-family:"trebuchet ms",verdana,arial,sans-serif;font-size:16px;}#my-svg p{margin:0;}#my-svg .entityBox{fill:#ECECFF;stroke:#9370DB;}#my-svg .relationshipLabelBox{fill:hsl(80, 100%, 96.2745098039%);opacity:0.7;background-color:hsl(80, 100%, 96.2745098039%);}#my-svg .relationshipLabelBox rect{opacity:0.5;}#my-svg .labelBkg{background-color:rgba(248.6666666666, 255, 235.9999999999, 0.5);}#my-svg .edgeLabel .label{fill:#9370DB;font-size:14px;}#my-svg .label{font-family:"trebuchet ms",verdana,arial,sans-serif;color:#333;}#my-svg .edge-pattern-dashed{stroke-dasharray:8,8;}#my-svg .node rect,#my-svg .node circle,#my-svg .node ellipse,#my-svg .node polygon{fill:#ECECFF;stroke:#9370DB;stroke-width:1px;}#my-svg .relationshipLine{stroke:#333333;stroke-width:1;fill:none;}#my-svg .marker{fill:none!important;stroke:#333333!important;stroke-width:1;}#my-svg :root{--mermaid-font-family:"trebuchet ms",verdana,arial,sans-serif;}</style><g><defs><marker id="my-svg_er-onlyOneStart" class="marker onlyOne er" refX="0" refY="9" markerWidth="18" markerHeight="18" orient="auto"><path d="M9,0 L9,18 M15,0 L15,18"/></marker></defs><defs><marker id="my-svg_er-onlyOneEnd" class="marker onlyOne er" refX="18" refY="9" markerWidth="18" markerHeight="18" orient="auto"><path d="M3,0 L3,18 M9,0 L9,18"/></marker></defs><defs><marker id="my-svg_er-zeroOrOneStart" class="marker zeroOrOne er" refX="0" refY="9" markerWidth="30" markerHeight="18" orient="auto"><circle fill="white" cx="21" cy="9" r="6"/><path d="M9,0 L9,18"/></marker></defs><defs><marker id="my-svg_er-zeroOrOneEnd" class="marker zeroOrOne er" refX="30" refY="9" markerWidth="30" markerHeight="18" orient="auto"><circle fill="white" cx="9" cy="9" r="6"/><path d="M21,0 L21,18"/></marker></defs><defs><marker id="my-svg_er-oneOrMoreStart" class="marker oneOrMore er" refX="18" refY="18" markerWidth="45" markerHeight="36" orient="auto"><path d="M0,18 Q 18,0 36,18 Q 18,36 0,18 M42,9 L42,27"/></marker></defs><defs><marker id="my-svg_er-oneOrMoreEnd" class="marker oneOrMore er" refX="27" refY="18" markerWidth="45" markerHeight="36" orient="auto"><path d="M3,9 L3,27 M9,18 Q27,0 45,18 Q27,36 9,18"/></marker></defs><defs><marker id="my-svg_er-zeroOrMoreStart" class="marker zeroOrMore er" refX="18" refY="18" markerWidth="57" markerHeight="36" orient="auto"><circle fill="white" cx="48" cy="18" r="6"/><path d="M0,18 Q18,0 36,18 Q18,36 0,18"/></marker></defs><defs><marker id="my-svg_er-zeroOrMoreEnd" class="marker zeroOrMore er" refX="39" refY="18" markerWidth="57" markerHeight="36" orient="auto"><circle fill="white" cx="9" cy="18" r="6"/><path d="M21,18 Q39,0 57,18 Q39,36 21,18"/></marker></defs><g class="root"><g class="clusters"/><g class="edgePaths"><path d="M634.531,145.2L544.499,166.375C454.466,187.55,274.401,229.9,184.368,259.492C94.336,289.083,94.336,305.917,94.336,314.333L94.336,322.75" id="id_entity-TECHNIQUE-0_entity-GOAL-1_0" class="edge-thickness-normal edge-pattern-solid relationshipLine" style="undefined;;;undefined" data-edge="true" data-et="edge" data-id="id_entity-TECHNIQUE-0_entity-GOAL-1_0" data-points="W3sieCI6NjM0LjUzMTI1LCJ5IjoxNDUuMjAwMTI5MzA2ODIyMDJ9LHsieCI6OTQuMzM1OTM3NSwieSI6MjcyLjI1fSx7IngiOjk0LjMzNTkzNzUsInkiOjMyMi43NX1d" marker-start="url(#my-svg_er-onlyOneStart)" marker-end="url(#my-svg_er-zeroOrMoreEnd)"/><path d="M634.531,173.695L598.525,190.121C562.518,206.547,490.505,239.398,454.499,264.241C418.492,289.083,418.492,305.917,418.492,314.333L418.492,322.75" id="id_entity-TECHNIQUE-0_entity-TAG-2_1" class="edge-thickness-normal edge-pattern-solid relationshipLine" style="undefined;;;undefined" data-edge="true" data-et="edge" data-id="id_entity-TECHNIQUE-0_entity-TAG-2_1" data-points="W3sieCI6NjM0LjUzMTI1LCJ5IjoxNzMuNjk1MDUxMTgxMDEzMn0seyJ4Ijo0MTguNDkyMTg3NSwieSI6MjcyLjI1fSx7IngiOjQxOC40OTIxODc1LCJ5IjozMjIuNzV9XQ==" marker-start="url(#my-svg_er-onlyOneStart)" marker-end="url(#my-svg_er-zeroOrMoreEnd)"/><path d="M892.406,196.958L912.118,209.507C931.829,222.056,971.252,247.153,990.964,278.797C1010.675,310.442,1010.675,348.633,1010.675,367.729L1010.675,386.825" id="entity-TECHNIQUE-0-cyclic-special-1" class="edge-thickness-normal edge-pattern-solid relationshipLine" style="undefined;;;undefined" data-edge="true" data-et="edge" data-id="entity-TECHNIQUE-0-cyclic-special-1" data-points="W3sieCI6ODkyLjQwNjI1LCJ5IjoxOTYuOTU4NDM4Njc2OTcwNX0seyJ4IjoxMDEwLjY3NTAwMDAwMDc0NTEsInkiOjI3Mi4yNX0seyJ4IjoxMDEwLjY3NTAwMDAwMDc0NTEsInkiOjM4Ni44MjQ5OTk5OTkyNTQ5NH1d" marker-start="url(#my-svg_er-onlyOneStart)"/><path d="M1010.675,386.925L1010.675,406.021C1010.675,425.117,1010.675,463.308,1017.339,490.821C1024.003,518.333,1037.332,535.167,1043.996,543.583L1050.66,552" id="entity-TECHNIQUE-0-cyclic-special-mid" class="edge-thickness-normal edge-pattern-solid relationshipLine" style="undefined;;;undefined" data-edge="true" data-et="edge" data-id="entity-TECHNIQUE-0-cyclic-special-mid" data-points="W3sieCI6MTAxMC42NzUwMDAwMDA3NDUxLCJ5IjozODYuOTI1MDAwMDAwNzQ1MDZ9LHsieCI6MTAxMC42NzUwMDAwMDA3NDUxLCJ5Ijo1MDEuNX0seyJ4IjoxMDUwLjY2MDQxMDQ4NTE5NjUsInkiOjU1Mn1d"/><path d="M1050.74,552L1057.404,543.583C1064.068,535.167,1077.397,518.333,1084.061,490.813C1090.725,463.292,1090.725,425.083,1090.725,386.875C1090.725,348.667,1090.725,310.458,1057.672,275.459C1024.619,240.46,958.513,208.67,925.459,192.775L892.406,176.88" id="entity-TECHNIQUE-0-cyclic-special-2" class="edge-thickness-normal edge-pattern-solid relationshipLine" style="undefined;;;undefined" data-edge="true" data-et="edge" data-id="entity-TECHNIQUE-0-cyclic-special-2" data-points="W3sieCI6MTA1MC43Mzk1ODk1MTcwMzg3LCJ5Ijo1NTJ9LHsieCI6MTA5MC43MjUwMDAwMDE0OTAxLCJ5Ijo1MDEuNX0seyJ4IjoxMDkwLjcyNTAwMDAwMTQ5MDEsInkiOjM4Ni44NzV9LHsieCI6MTA5MC43MjUwMDAwMDE0OTAxLCJ5IjoyNzIuMjV9LHsieCI6ODkyLjQwNjI1LCJ5IjoxNzYuODgwMDQ2Njk0Nzc2OTh9XQ==" marker-end="url(#my-svg_er-zeroOrMoreEnd)"/><path d="M763.469,221.75L763.469,230.167C763.469,238.583,763.469,255.417,763.469,272.25C763.469,289.083,763.469,305.917,763.469,314.333L763.469,322.75" id="id_entity-TECHNIQUE-0_entity-RESOURCE-3_3" class="edge-thickness-normal edge-pattern-solid relationshipLine" style="undefined;;;undefined" data-edge="true" data-et="edge" data-id="id_entity-TECHNIQUE-0_entity-RESOURCE-3_3" data-points="W3sieCI6NzYzLjQ2ODc1LCJ5IjoyMjEuNzV9LHsieCI6NzYzLjQ2ODc1LCJ5IjoyNzIuMjV9LHsieCI6NzYzLjQ2ODc1LCJ5IjozMjIuNzV9XQ==" marker-start="url(#my-svg_er-onlyOneStart)" marker-end="url(#my-svg_er-zeroOrMoreEnd)"/></g><g class="edgeLabels"><g class="edgeLabel" transform="translate(94.3359375, 272.25)"><g class="label" data-id="id_entity-TECHNIQUE-0_entity-GOAL-1_0" transform="translate(-44.5703125, -10.5)"><foreignObject width="89.140625" height="21"><div xmlns="http://www.w3.org/1999/xhtml" class="labelBkg" style="display: table-cell; white-space: nowrap; line-height: 1.5; max-width: 200px; text-align: center;"><span class="edgeLabel"><p>addressesGoal</p></span></div></foreignObject></g></g><g class="edgeLabel" transform="translate(418.4921875, 272.25)"><g class="label" data-id="id_entity-TECHNIQUE-0_entity-TAG-2_1" transform="translate(-20.7265625, -10.5)"><foreignObject width="41.453125" height="21"><div xmlns="http://www.w3.org/1999/xhtml" class="labelBkg" style="display: table-cell; white-space: nowrap; line-height: 1.5; max-width: 200px; text-align: center;"><span class="edgeLabel"><p>hasTag</p></span></div></foreignObject></g></g><g class="edgeLabel"><g class="label" data-id="entity-TECHNIQUE-0-cyclic-special-1" transform="translate(0, 0)"><foreignObject width="0" height="0"><div xmlns="http://www.w3.org/1999/xhtml" class="labelBkg" style="display: table-cell; white-space: nowrap; line-height: 1.5; max-width: 200px; text-align: center;"><span class="edgeLabel"></span></div></foreignObject></g></g><g class="edgeLabel" transform="translate(1010.6750000007451, 501.5)"><g class="label" data-id="entity-TECHNIQUE-0-cyclic-special-mid" transform="translate(-29.7265625, -10.5)"><foreignObject width="59.453125" height="21"><div xmlns="http://www.w3.org/1999/xhtml" class="labelBkg" style="display: table-cell; white-space: nowrap; line-height: 1.5; max-width: 200px; text-align: center;"><span class="edgeLabel"><p>relatedTo</p></span></div></foreignObject></g></g><g class="edgeLabel"><g class="label" data-id="entity-TECHNIQUE-0-cyclic-special-2" transform="translate(0, 0)"><foreignObject width="0" height="0"><div xmlns="http://www.w3.org/1999/xhtml" class="labelBkg" style="display: table-cell; white-space: nowrap; line-height: 1.5; max-width: 200px; text-align: center;"><span class="edgeLabel"></span></div></foreignObject></g></g><g class="edgeLabel" transform="translate(763.46875, 272.25)"><g class="label" data-id="id_entity-TECHNIQUE-0_entity-RESOURCE-3_3" transform="translate(-42.921875, -10.5)"><foreignObject width="85.84375" height="21"><div xmlns="http://www.w3.org/1999/xhtml" class="labelBkg" style="display: table-cell; white-space: nowrap; line-height: 1.5; max-width: 200px; text-align: center;"><span class="edgeLabel"><p>citesResource</p></span></div></foreignObject></g></g></g><g class="nodes"><g class="node default" id="entity-TECHNIQUE-0" transform="translate(763.46875, 114.875)"><g style=""><path d="M-128.9375 -106.875 L128.9375 -106.875 L128.9375 106.875 L-128.9375 106.875" stroke="none" stroke-width="0" fill="#ECECFF"/><path d="M-128.9375 -106.875 C-36.79322168219471 -106.875, 55.351056635610576 -106.875, 128.9375 -106.875 M-128.9375 -106.875 C-71.31188531098854 -106.875, -13.686270621977101 -106.875, 128.9375 -106.875 M128.9375 -106.875 C128.9375 -57.733145725344066, 128.9375 -8.591291450688132, 128.9375 106.875 M128.9375 -106.875 C128.9375 -22.15143795581605, 128.9375 62.5721240883679, 128.9375 106.875 M128.9375 106.875 C49.009720477997405 106.875, -30.91805904400519 106.875, -128.9375 106.875 M128.9375 106.875 C65.78108848335421 106.875, 2.6246769667084067 106.875, -128.9375 106.875 M-128.9375 106.875 C-128.9375 43.93924752268357, -128.9375 -18.996504954632854, -128.9375 -106.875 M-128.9375 106.875 C-128.9375 39.24541448876816, -128.9375 -28.384171022463676, -128.9375 -106.875" stroke="#9370DB" stroke-width="1.3" fill="none" stroke-dasharray="0 0"/></g><g style="" class="row-rect-odd"><path d="M-128.9375 -64.125 L128.9375 -64.125 L128.9375 -21.375 L-128.9375 -21.375" stroke="none" stroke-width="0" fill="hsl(240, 100%, 100%)"/><path d="M-128.9375 -64.125 C-56.21692444411438 -64.125, 16.503651111771234 -64.125, 128.9375 -64.125 M-128.9375 -64.125 C-57.4015793334878 -64.125, 14.134341333024395 -64.125, 128.9375 -64.125 M128.9375 -64.125 C128.9375 -53.47199174275153, 128.9375 -42.81898348550306, 128.9375 -21.375 M128.9375 -64.125 C128.9375 -49.22275699574557, 128.9375 -34.32051399149114, 128.9375 -21.375 M128.9375 -21.375 C28.368340490593127 -21.375, -72.20081901881375 -21.375, -128.9375 -21.375 M128.9375 -21.375 C39.365279018081864 -21.375, -50.20694196383627 -21.375, -128.9375 -21.375 M-128.9375 -21.375 C-128.9375 -36.80533487335519, -128.9375 -52.23566974671038, -128.9375 -64.125 M-128.9375 -21.375 C-128.9375 -35.93060340639893, -128.9375 -50.48620681279786, -128.9375 -64.125" stroke="#9370DB" stroke-width="1.3" fill="none" stroke-dasharray="0 0"/></g><g style="" class="row-rect-even"><path d="M-128.9375 -21.375 L128.9375 -21.375 L128.9375 21.375 L-128.9375 21.375" stroke="none" stroke-width="0" fill="hsl(240, 100%, 97.2745098039%)"/><path d="M-128.9375 -21.375 C-26.03038922768488 -21.375, 76.87672154463024 -21.375, 128.9375 -21.375 M-128.9375 -21.375 C-36.58997279418466 -21.375, 55.75755441163068 -21.375, 128.9375 -21.375 M128.9375 -21.375 C128.9375 -4.953712147341037, 128.9375 11.467575705317927, 128.9375 21.375 M128.9375 -21.375 C128.9375 -10.597912831302992, 128.9375 0.17917433739401645, 128.9375 21.375 M128.9375 21.375 C69.01281585676901 21.375, 9.088131713538004 21.375, -128.9375 21.375 M128.9375 21.375 C40.61174317402414 21.375, -47.71401365195172 21.375, -128.9375 21.375 M-128.9375 21.375 C-128.9375 7.30115468132886, -128.9375 -6.772690637342279, -128.9375 -21.375 M-128.9375 21.375 C-128.9375 8.759244001694292, -128.9375 -3.8565119966114167, -128.9375 -21.375" stroke="#9370DB" stroke-width="1.3" fill="none" stroke-dasharray="0 0"/></g><g style="" class="row-rect-odd"><path d="M-128.9375 21.375 L128.9375 21.375 L128.9375 64.125 L-128.9375 64.125" stroke="none" stroke-width="0" fill="hsl(240, 100%, 100%)"/><path d="M-128.9375 21.375 C-74.71818978496442 21.375, -20.498879569928846 21.375, 128.9375 21.375 M-128.9375 21.375 C-40.42382327938465 21.375, 48.0898534412307 21.375, 128.9375 21.375 M128.9375 21.375 C128.9375 36.625743575214095, 128.9375 51.87648715042819, 128.9375 64.125 M128.9375 21.375 C128.9375 35.17966135766739, 128.9375 48.984322715334784, 128.9375 64.125 M128.9375 64.125 C71.36535553232221 64.125, 13.793211064644439 64.125, -128.9375 64.125 M128.9375 64.125 C52.181895773954466 64.125, -24.57370845209107 64.125, -128.9375 64.125 M-128.9375 64.125 C-128.9375 51.403120236251155, -128.9375 38.68124047250231, -128.9375 21.375 M-128.9375 64.125 C-128.9375 48.96313961080839, -128.9375 33.80127922161678, -128.9375 21.375" stroke="#9370DB" stroke-width="1.3" fill="none" stroke-dasharray="0 0"/></g><g style="" class="row-rect-even"><path d="M-128.9375 64.125 L128.9375 64.125 L128.9375 106.875 L-128.9375 106.875" stroke="none" stroke-width="0" fill="hsl(240, 100%, 97.2745098039%)"/><path d="M-128.9375 64.125 C-29.067803498492125 64.125, 70.80189300301575 64.125, 128.9375 64.125 M-128.9375 64.125 C-55.70113056133202 64.125, 17.535238877335956 64.125, 128.9375 64.125 M128.9375 64.125 C128.9375 79.8967478090833, 128.9375 95.66849561816659, 128.9375 106.875 M128.9375 64.125 C128.9375 77.90238550980041, 128.9375 91.6797710196008, 128.9375 106.875 M128.9375 106.875 C72.0644133203655 106.875, 15.19132664073102 106.875, -128.9375 106.875 M128.9375 106.875 C67.14069223000155 106.875, 5.34388446000311 106.875, -128.9375 106.875 M-128.9375 106.875 C-128.9375 92.28529014258234, -128.9375 77.69558028516468, -128.9375 64.125 M-128.9375 106.875 C-128.9375 91.66799691499257, -128.9375 76.46099382998514, -128.9375 64.125" stroke="#9370DB" stroke-width="1.3" fill="none" stroke-dasharray="0 0"/></g><g class="label name" transform="translate(-41.1640625, -97.5)" style=""><foreignObject width="82.328125" height="24"><div xmlns="http://www.w3.org/1999/xhtml" style="display: table-cell; white-space: nowrap; line-height: 1.5; max-width: 192px; text-align: start;"><span class="nodeLabel"><p>TECHNIQUE</p></span></div></foreignObject></g><g class="label attribute-type" transform="translate(-116.4375, -54.75)" style=""><foreignObject width="40.375" height="24"><div xmlns="http://www.w3.org/1999/xhtml" style="display: table-cell; white-space: nowrap; line-height: 1.5; max-width: 136px; text-align: start;"><span class="nodeLabel"><p>string</p></span></div></foreignObject></g><g class="label attribute-name" transform="translate(-51.0625, -54.75)" style=""><foreignObject width="27.96875" height="24"><div xmlns="http://www.w3.org/1999/xhtml" style="display: table-cell; white-space: nowrap; line-height: 1.5; max-width: 127px; text-align: start;"><span class="nodeLabel"><p>slug</p></span></div></foreignObject></g><g class="label attribute-keys" transform="translate(98.296875, -54.75)" style=""><foreignObject width="18.140625" height="24"><div xmlns="http://www.w3.org/1999/xhtml" style="display: table-cell; white-space: nowrap; line-height: 1.5; max-width: 121px; text-align: start;"><span class="nodeLabel"><p>PK</p></span></div></foreignObject></g><g class="label attribute-comment" transform="translate(141.4375, -54.75)" style=""><foreignObject width="0" height="0"><div xmlns="http://www.w3.org/1999/xhtml" style="display: table-cell; white-space: nowrap; line-height: 1.5; max-width: 100px; text-align: start;"><span class="nodeLabel"></span></div></foreignObject></g><g class="label attribute-type" transform="translate(-116.4375, -12)" style=""><foreignObject width="40.375" height="24"><div xmlns="http://www.w3.org/1999/xhtml" style="display: table-cell; white-space: nowrap; line-height: 1.5; max-width: 136px; text-align: start;"><span class="nodeLabel"><p>string</p></span></div></foreignObject></g><g class="label attribute-name" transform="translate(-51.0625, -12)" style=""><foreignObject width="39.15625" height="24"><div xmlns="http://www.w3.org/1999/xhtml" style="display: table-cell; white-space: nowrap; line-height: 1.5; max-width: 135px; text-align: start;"><span class="nodeLabel"><p>name</p></span></div></foreignObject></g><g class="label attribute-keys" transform="translate(98.296875, -12)" style=""><foreignObject width="0" height="0"><div xmlns="http://www.w3.org/1999/xhtml" style="display: table-cell; white-space: nowrap; line-height: 1.5; max-width: 100px; text-align: start;"><span class="nodeLabel"></span></div></foreignObject></g><g class="label attribute-comment" transform="translate(141.4375, -12)" style=""><foreignObject width="0" height="0"><div xmlns="http://www.w3.org/1999/xhtml" style="display: table-cell; white-space: nowrap; line-height: 1.5; max-width: 100px; text-align: start;"><span class="nodeLabel"></span></div></foreignObject></g><g class="label attribute-type" transform="translate(-116.4375, 30.75)" style=""><foreignObject width="40.375" height="24"><div xmlns="http://www.w3.org/1999/xhtml" style="display: table-cell; white-space: nowrap; line-height: 1.5; max-width: 136px; text-align: start;"><span class="nodeLabel"><p>string</p></span></div></foreignObject></g><g class="label attribute-name" transform="translate(-51.0625, 30.75)" style=""><foreignObject width="79.96875" height="24"><div xmlns="http://www.w3.org/1999/xhtml" style="display: table-cell; white-space: nowrap; line-height: 1.5; max-width: 171px; text-align: start;"><span class="nodeLabel"><p>description</p></span></div></foreignObject></g><g class="label attribute-keys" transform="translate(98.296875, 30.75)" style=""><foreignObject width="0" height="0"><div xmlns="http://www.w3.org/1999/xhtml" style="display: table-cell; white-space: nowrap; line-height: 1.5; max-width: 100px; text-align: start;"><span class="nodeLabel"></span></div></foreignObject></g><g class="label attribute-comment" transform="translate(141.4375, 30.75)" style=""><foreignObject width="0" height="0"><div xmlns="http://www.w3.org/1999/xhtml" style="display: table-cell; white-space: nowrap; line-height: 1.5; max-width: 100px; text-align: start;"><span class="nodeLabel"></span></div></foreignObject></g><g class="label attribute-type" transform="translate(-116.4375, 73.5)" style=""><foreignObject width="19.65625" height="24"><div xmlns="http://www.w3.org/1999/xhtml" style="display: table-cell; white-space: nowrap; line-height: 1.5; max-width: 117px; text-align: start;"><span class="nodeLabel"><p>int</p></span></div></foreignObject></g><g class="label attribute-name" transform="translate(-51.0625, 73.5)" style=""><foreignObject width="124.359375" height="24"><div xmlns="http://www.w3.org/1999/xhtml" style="display: table-cell; white-space: nowrap; line-height: 1.5; max-width: 215px; text-align: start;"><span class="nodeLabel"><p>complexityRating</p></span></div></foreignObject></g><g class="label attribute-keys" transform="translate(98.296875, 73.5)" style=""><foreignObject width="0" height="0"><div xmlns="http://www.w3.org/1999/xhtml" style="display: table-cell; white-space: nowrap; line-height: 1.5; max-width: 100px; text-align: start;"><span class="nodeLabel"></span></div></foreignObject></g><g class="label attribute-comment" transform="translate(141.4375, 73.5)" style=""><foreignObject width="0" height="0"><div xmlns="http://www.w3.org/1999/xhtml" style="display: table-cell; white-space: nowrap; line-height: 1.5; max-width: 100px; text-align: start;"><span class="nodeLabel"></span></div></foreignObject></g><g class="divider"><path d="M-128.9375 -64.125 C-74.3549881071666 -64.125, -19.77247621433321 -64.125, 128.9375 -64.125 M-128.9375 -64.125 C-69.00409443994616 -64.125, -9.070688879892302 -64.125, 128.9375 -64.125" stroke="#9370DB" stroke-width="1.3" fill="none" stroke-dasharray="0 0"/></g><g class="divider"><path d="M-63.5625 -64.125 C-63.5625 -3.0365796764335187, -63.5625 58.05184064713296, -63.5625 106.875 M-63.5625 -64.125 C-63.5625 -25.231737688333027, -63.5625 13.661524623333946, -63.5625 106.875" stroke="#9370DB" stroke-width="1.3" fill="none" stroke-dasharray="0 0"/></g><g class="divider"><path d="M85.796875 -64.125 C85.796875 -27.360746907992322, 85.796875 9.403506184015356, 85.796875 106.875 M85.796875 -64.125 C85.796875 -11.009489684433959, 85.796875 42.10602063113208, 85.796875 106.875" stroke="#9370DB" stroke-width="1.3" fill="none" stroke-dasharray="0 0"/></g><g class="divider"><path d="M-128.9375 -64.125 C-33.54376198511888 -64.125, 61.849976029762246 -64.125, 128.9375 -64.125 M-128.9375 -64.125 C-55.98915993662412 -64.125, 16.95918012675176 -64.125, 128.9375 -64.125" stroke="#9370DB" stroke-width="1.3" fill="none" stroke-dasharray="0 0"/></g></g><g class="node default" id="entity-GOAL-1" transform="translate(94.3359375, 386.875)"><g style=""><path d="M-86.3359375 -64.125 L86.3359375 -64.125 L86.3359375 64.125 L-86.3359375 64.125" stroke="none" stroke-width="0" fill="#ECECFF"/><path d="M-86.3359375 -64.125 C-50.81082605454255 -64.125, -15.285714609085105 -64.125, 86.3359375 -64.125 M-86.3359375 -64.125 C-18.585185335177897 -64.125, 49.165566829644206 -64.125, 86.3359375 -64.125 M86.3359375 -64.125 C86.3359375 -19.822176990579848, 86.3359375 24.480646018840304, 86.3359375 64.125 M86.3359375 -64.125 C86.3359375 -32.25555101812746, 86.3359375 -0.38610203625492545, 86.3359375 64.125 M86.3359375 64.125 C37.81134974603426 64.125, -10.71323800793148 64.125, -86.3359375 64.125 M86.3359375 64.125 C34.606213092965305 64.125, -17.12351131406939 64.125, -86.3359375 64.125 M-86.3359375 64.125 C-86.3359375 21.71320153319747, -86.3359375 -20.69859693360506, -86.3359375 -64.125 M-86.3359375 64.125 C-86.3359375 28.08421016940322, -86.3359375 -7.956579661193558, -86.3359375 -64.125" stroke="#9370DB" stroke-width="1.3" fill="none" stroke-dasharray="0 0"/></g><g style="" class="row-rect-odd"><path d="M-86.3359375 -21.375 L86.3359375 -21.375 L86.3359375 21.375 L-86.3359375 21.375" stroke="none" stroke-width="0" fill="hsl(240, 100%, 100%)"/><path d="M-86.3359375 -21.375 C-22.272342219022562 -21.375, 41.791253061954876 -21.375, 86.3359375 -21.375 M-86.3359375 -21.375 C-31.930191134527213 -21.375, 22.475555230945574 -21.375, 86.3359375 -21.375 M86.3359375 -21.375 C86.3359375 -9.512422801758778, 86.3359375 2.350154396482445, 86.3359375 21.375 M86.3359375 -21.375 C86.3359375 -7.773487310997041, 86.3359375 5.828025378005918, 86.3359375 21.375 M86.3359375 21.375 C17.395102424548384 21.375, -51.54573265090323 21.375, -86.3359375 21.375 M86.3359375 21.375 C25.033798805804174 21.375, -36.26833988839165 21.375, -86.3359375 21.375 M-86.3359375 21.375 C-86.3359375 6.794818748197494, -86.3359375 -7.785362503605011, -86.3359375 -21.375 M-86.3359375 21.375 C-86.3359375 11.486518501854055, -86.3359375 1.5980370037081109, -86.3359375 -21.375" stroke="#9370DB" stroke-width="1.3" fill="none" stroke-dasharray="0 0"/></g><g style="" class="row-rect-even"><path d="M-86.3359375 21.375 L86.3359375 21.375 L86.3359375 64.125 L-86.3359375 64.125" stroke="none" stroke-width="0" fill="hsl(240, 100%, 97.2745098039%)"/><path d="M-86.3359375 21.375 C-19.576277674046878 21.375, 47.183382151906244 21.375, 86.3359375 21.375 M-86.3359375 21.375 C-26.366355267238966 21.375, 33.60322696552207 21.375, 86.3359375 21.375 M86.3359375 21.375 C86.3359375 34.978900574074466, 86.3359375 48.58280114814893, 86.3359375 64.125 M86.3359375 21.375 C86.3359375 37.70312505657307, 86.3359375 54.03125011314615, 86.3359375 64.125 M86.3359375 64.125 C18.296927000899828 64.125, -49.742083498200344 64.125, -86.3359375 64.125 M86.3359375 64.125 C43.51861628806657 64.125, 0.7012950761331354 64.125, -86.3359375 64.125 M-86.3359375 64.125 C-86.3359375 48.83744625351731, -86.3359375 33.54989250703461, -86.3359375 21.375 M-86.3359375 64.125 C-86.3359375 53.08977025004359, -86.3359375 42.054540500087185, -86.3359375 21.375" stroke="#9370DB" stroke-width="1.3" fill="none" stroke-dasharray="0 0"/></g><g class="label name" transform="translate(-19.5703125, -54.75)" style=""><foreignObject width="39.140625" height="24"><div xmlns="http://www.w3.org/1999/xhtml" style="display: table-cell; white-space: nowrap; line-height: 1.5; max-width: 144px; text-align: start;"><span class="nodeLabel"><p>GOAL</p></span></div></foreignObject></g><g class="label attribute-type" transform="translate(-73.8359375, -12)" style=""><foreignObject width="40.375" height="24"><div xmlns="http://www.w3.org/1999/xhtml" style="display: table-cell; white-space: nowrap; line-height: 1.5; max-width: 136px; text-align: start;"><span class="nodeLabel"><p>string</p></span></div></foreignObject></g><g class="label attribute-name" transform="translate(-8.4609375, -12)" style=""><foreignObject width="27.96875" height="24"><div xmlns="http://www.w3.org/1999/xhtml" style="display: table-cell; white-space: nowrap; line-height: 1.5; max-width: 127px; text-align: start;"><span class="nodeLabel"><p>slug</p></span></div></foreignObject></g><g class="label attribute-keys" transform="translate(55.6953125, -12)" style=""><foreignObject width="18.140625" height="24"><div xmlns="http://www.w3.org/1999/xhtml" style="display: table-cell; white-space: nowrap; line-height: 1.5; max-width: 121px; text-align: start;"><span class="nodeLabel"><p>PK</p></span></div></foreignObject></g><g class="label attribute-comment" transform="translate(98.8359375, -12)" style=""><foreignObject width="0" height="0"><div xmlns="http://www.w3.org/1999/xhtml" style="display: table-cell; white-space: nowrap; line-height: 1.5; max-width: 100px; text-align: start;"><span class="nodeLabel"></span></div></foreignObject></g><g class="label attribute-type" transform="translate(-73.8359375, 30.75)" style=""><foreignObject width="40.375" height="24"><div xmlns="http://www.w3.org/1999/xhtml" style="display: table-cell; white-space: nowrap; line-height: 1.5; max-width: 136px; text-align: start;"><span class="nodeLabel"><p>string</p></span></div></foreignObject></g><g class="label attribute-name" transform="translate(-8.4609375, 30.75)" style=""><foreignObject width="39.15625" height="24"><div xmlns="http://www.w3.org/1999/xhtml" style="display: table-cell; white-space: nowrap; line-height: 1.5; max-width: 135px; text-align: start;"><span class="nodeLabel"><p>name</p></span></div></foreignObject></g><g class="label attribute-keys" transform="translate(55.6953125, 30.75)" style=""><foreignObject width="0" height="0"><div xmlns="http://www.w3.org/1999/xhtml" style="display: table-cell; white-space: nowrap; line-height: 1.5; max-width: 100px; text-align: start;"><span class="nodeLabel"></span></div></foreignObject></g><g class="label attribute-comment" transform="translate(98.8359375, 30.75)" style=""><foreignObject width="0" height="0"><div xmlns="http://www.w3.org/1999/xhtml" style="display: table-cell; white-space: nowrap; line-height: 1.5; max-width: 100px; text-align: start;"><span class="nodeLabel"></span></div></foreignObject></g><g class="divider"><path d="M-86.3359375 -21.375 C-23.485921110286306 -21.375, 39.36409527942739 -21.375, 86.3359375 -21.375 M-86.3359375 -21.375 C-44.3901350019946 -21.375, -2.4443325039892017 -21.375, 86.3359375 -21.375" stroke="#9370DB" stroke-width="1.3" fill="none" stroke-dasharray="0 0"/></g><g class="divider"><path d="M-20.9609375 -21.375 C-20.9609375 0.9966659999058294, -20.9609375 23.36833199981166, -20.9609375 64.125 M-20.9609375 -21.375 C-20.9609375 1.749286879768018, -20.9609375 24.873573759536036, -20.9609375 64.125" stroke="#9370DB" stroke-width="1.3" fill="none" stroke-dasharray="0 0"/></g><g class="divider"><path d="M43.1953125 -21.375 C43.1953125 0.6865156922522395, 43.1953125 22.74803138450448, 43.1953125 64.125 M43.1953125 -21.375 C43.1953125 -3.427521187758103, 43.1953125 14.519957624483794, 43.1953125 64.125" stroke="#9370DB" stroke-width="1.3" fill="none" stroke-dasharray="0 0"/></g><g class="divider"><path d="M-86.3359375 -21.375 C-38.43218081313653 -21.375, 9.471575873726934 -21.375, 86.3359375 -21.375 M-86.3359375 -21.375 C-21.21766918663444 -21.375, 43.90059912673112 -21.375, 86.3359375 -21.375" stroke="#9370DB" stroke-width="1.3" fill="none" stroke-dasharray="0 0"/></g></g><g class="node default" id="entity-TAG-2" transform="translate(418.4921875, 386.875)"><g style=""><path d="M-97.8203125 -64.125 L97.8203125 -64.125 L97.8203125 64.125 L-97.8203125 64.125" stroke="none" stroke-width="0" fill="#ECECFF"/><path d="M-97.8203125 -64.125 C-55.70955394763934 -64.125, -13.598795395278685 -64.125, 97.8203125 -64.125 M-97.8203125 -64.125 C-33.85896712527379 -64.125, 30.102378249452414 -64.125, 97.8203125 -64.125 M97.8203125 -64.125 C97.8203125 -37.24796595618224, 97.8203125 -10.370931912364476, 97.8203125 64.125 M97.8203125 -64.125 C97.8203125 -21.521929651889216, 97.8203125 21.081140696221567, 97.8203125 64.125 M97.8203125 64.125 C43.51649766303544 64.125, -10.787317173929125 64.125, -97.8203125 64.125 M97.8203125 64.125 C37.05257794498409 64.125, -23.715156610031826 64.125, -97.8203125 64.125 M-97.8203125 64.125 C-97.8203125 31.102259103703318, -97.8203125 -1.920481792593364, -97.8203125 -64.125 M-97.8203125 64.125 C-97.8203125 28.637294343437993, -97.8203125 -6.850411313124013, -97.8203125 -64.125" stroke="#9370DB" stroke-width="1.3" fill="none" stroke-dasharray="0 0"/></g><g style="" class="row-rect-odd"><path d="M-97.8203125 -21.375 L97.8203125 -21.375 L97.8203125 21.375 L-97.8203125 21.375" stroke="none" stroke-width="0" fill="hsl(240, 100%, 100%)"/><path d="M-97.8203125 -21.375 C-53.533499804032154 -21.375, -9.246687108064307 -21.375, 97.8203125 -21.375 M-97.8203125 -21.375 C-30.037738144876656 -21.375, 37.74483621024669 -21.375, 97.8203125 -21.375 M97.8203125 -21.375 C97.8203125 -10.054364754254227, 97.8203125 1.2662704914915466, 97.8203125 21.375 M97.8203125 -21.375 C97.8203125 -12.39464394707684, 97.8203125 -3.4142878941536807, 97.8203125 21.375 M97.8203125 21.375 C31.859471690116052 21.375, -34.101369119767895 21.375, -97.8203125 21.375 M97.8203125 21.375 C23.23401128950556 21.375, -51.35228992098888 21.375, -97.8203125 21.375 M-97.8203125 21.375 C-97.8203125 4.787764885274282, -97.8203125 -11.799470229451437, -97.8203125 -21.375 M-97.8203125 21.375 C-97.8203125 6.23620375990625, -97.8203125 -8.9025924801875, -97.8203125 -21.375" stroke="#9370DB" stroke-width="1.3" fill="none" stroke-dasharray="0 0"/></g><g style="" class="row-rect-even"><path d="M-97.8203125 21.375 L97.8203125 21.375 L97.8203125 64.125 L-97.8203125 64.125" stroke="none" stroke-width="0" fill="hsl(240, 100%, 97.2745098039%)"/><path d="M-97.8203125 21.375 C-48.88189528210763 21.375, 0.05652193578474396 21.375, 97.8203125 21.375 M-97.8203125 21.375 C-46.92705035394419 21.375, 3.966211792111622 21.375, 97.8203125 21.375 M97.8203125 21.375 C97.8203125 35.57223546813406, 97.8203125 49.76947093626812, 97.8203125 64.125 M97.8203125 21.375 C97.8203125 33.83228869279124, 97.8203125 46.289577385582476, 97.8203125 64.125 M97.8203125 64.125 C20.994330645193116 64.125, -55.83165120961377 64.125, -97.8203125 64.125 M97.8203125 64.125 C38.8822782189675 64.125, -20.055756062065 64.125, -97.8203125 64.125 M-97.8203125 64.125 C-97.8203125 48.87820002988359, -97.8203125 33.631400059767174, -97.8203125 21.375 M-97.8203125 64.125 C-97.8203125 54.31074689027733, -97.8203125 44.49649378055466, -97.8203125 21.375" stroke="#9370DB" stroke-width="1.3" fill="none" stroke-dasharray="0 0"/></g><g class="label name" transform="translate(-14, -54.75)" style=""><foreignObject width="28" height="24"><div xmlns="http://www.w3.org/1999/xhtml" style="display: table-cell; white-space: nowrap; line-height: 1.5; max-width: 132px; text-align: start;"><span class="nodeLabel"><p>TAG</p></span></div></foreignObject></g><g class="label attribute-type" transform="translate(-85.3203125, -12)" style=""><foreignObject width="40.375" height="24"><div xmlns="http://www.w3.org/1999/xhtml" style="display: table-cell; white-space: nowrap; line-height: 1.5; max-width: 136px; text-align: start;"><span class="nodeLabel"><p>string</p></span></div></foreignObject></g><g class="label attribute-name" transform="translate(-19.9453125, -12)" style=""><foreignObject width="32.40625" height="24"><div xmlns="http://www.w3.org/1999/xhtml" style="display: table-cell; white-space: nowrap; line-height: 1.5; max-width: 128px; text-align: start;"><span class="nodeLabel"><p>path</p></span></div></foreignObject></g><g class="label attribute-keys" transform="translate(67.1796875, -12)" style=""><foreignObject width="18.140625" height="24"><div xmlns="http://www.w3.org/1999/xhtml" style="display: table-cell; white-space: nowrap; line-height: 1.5; max-width: 121px; text-align: start;"><span class="nodeLabel"><p>PK</p></span></div></foreignObject></g><g class="label attribute-comment" transform="translate(110.3203125, -12)" style=""><foreignObject width="0" height="0"><div xmlns="http://www.w3.org/1999/xhtml" style="display: table-cell; white-space: nowrap; line-height: 1.5; max-width: 100px; text-align: start;"><span class="nodeLabel"></span></div></foreignObject></g><g class="label attribute-type" transform="translate(-85.3203125, 30.75)" style=""><foreignObject width="40.375" height="24"><div xmlns="http://www.w3.org/1999/xhtml" style="display: table-cell; white-space: nowrap; line-height: 1.5; max-width: 136px; text-align: start;"><span class="nodeLabel"><p>string</p></span></div></foreignObject></g><g class="label attribute-name" transform="translate(-19.9453125, 30.75)" style=""><foreignObject width="62.125" height="24"><div xmlns="http://www.w3.org/1999/xhtml" style="display: table-cell; white-space: nowrap; line-height: 1.5; max-width: 155px; text-align: start;"><span class="nodeLabel"><p>category</p></span></div></foreignObject></g><g class="label attribute-keys" transform="translate(67.1796875, 30.75)" style=""><foreignObject width="0" height="0"><div xmlns="http://www.w3.org/1999/xhtml" style="display: table-cell; white-space: nowrap; line-height: 1.5; max-width: 100px; text-align: start;"><span class="nodeLabel"></span></div></foreignObject></g><g class="label attribute-comment" transform="translate(110.3203125, 30.75)" style=""><foreignObject width="0" height="0"><div xmlns="http://www.w3.org/1999/xhtml" style="display: table-cell; white-space: nowrap; line-height: 1.5; max-width: 100px; text-align: start;"><span class="nodeLabel"></span></div></foreignObject></g><g class="divider"><path d="M-97.8203125 -21.375 C-31.100410110907887 -21.375, 35.619492278184225 -21.375, 97.8203125 -21.375 M-97.8203125 -21.375 C-33.58793774707385 -21.375, 30.644437005852296 -21.375, 97.8203125 -21.375" stroke="#9370DB" stroke-width="1.3" fill="none" stroke-dasharray="0 0"/></g><g class="divider"><path d="M-32.4453125 -21.375 C-32.4453125 -1.299909912238416, -32.4453125 18.775180175523168, -32.4453125 64.125 M-32.4453125 -21.375 C-32.4453125 11.975832376629597, -32.4453125 45.326664753259195, -32.4453125 64.125" stroke="#9370DB" stroke-width="1.3" fill="none" stroke-dasharray="0 0"/></g><g class="divider"><path d="M54.6796875 -21.375 C54.6796875 11.75920759565021, 54.6796875 44.89341519130042, 54.6796875 64.125 M54.6796875 -21.375 C54.6796875 7.9555880589165255, 54.6796875 37.28617611783305, 54.6796875 64.125" stroke="#9370DB" stroke-width="1.3" fill="none" stroke-dasharray="0 0"/></g><g class="divider"><path d="M-97.8203125 -21.375 C-42.14709000907835 -21.375, 13.526132481843305 -21.375, 97.8203125 -21.375 M-97.8203125 -21.375 C-35.18361870543762 -21.375, 27.453075089124766 -21.375, 97.8203125 -21.375" stroke="#9370DB" stroke-width="1.3" fill="none" stroke-dasharray="0 0"/></g></g><g class="node default" id="entity-RESOURCE-3" transform="translate(763.46875, 386.875)"><g style=""><path d="M-107.15625 -64.125 L107.15625 -64.125 L107.15625 64.125 L-107.15625 64.125" stroke="none" stroke-width="0" fill="#ECECFF"/><path d="M-107.15625 -64.125 C-29.023668955963572 -64.125, 49.108912088072856 -64.125, 107.15625 -64.125 M-107.15625 -64.125 C-26.289171637623085 -64.125, 54.57790672475383 -64.125, 107.15625 -64.125 M107.15625 -64.125 C107.15625 -27.160237527901913, 107.15625 9.804524944196174, 107.15625 64.125 M107.15625 -64.125 C107.15625 -15.71138540870686, 107.15625 32.70222918258628, 107.15625 64.125 M107.15625 64.125 C61.47596757333944 64.125, 15.795685146678878 64.125, -107.15625 64.125 M107.15625 64.125 C63.11012164621602 64.125, 19.063993292432045 64.125, -107.15625 64.125 M-107.15625 64.125 C-107.15625 32.43522512113156, -107.15625 0.745450242263118, -107.15625 -64.125 M-107.15625 64.125 C-107.15625 24.389224859873202, -107.15625 -15.346550280253595, -107.15625 -64.125" stroke="#9370DB" stroke-width="1.3" fill="none" stroke-dasharray="0 0"/></g><g style="" class="row-rect-odd"><path d="M-107.15625 -21.375 L107.15625 -21.375 L107.15625 21.375 L-107.15625 21.375" stroke="none" stroke-width="0" fill="hsl(240, 100%, 100%)"/><path d="M-107.15625 -21.375 C-55.69262804406541 -21.375, -4.2290060881308165 -21.375, 107.15625 -21.375 M-107.15625 -21.375 C-47.475429909277096 -21.375, 12.205390181445807 -21.375, 107.15625 -21.375 M107.15625 -21.375 C107.15625 -7.943293811446727, 107.15625 5.488412377106545, 107.15625 21.375 M107.15625 -21.375 C107.15625 -11.491089664477776, 107.15625 -1.607179328955553, 107.15625 21.375 M107.15625 21.375 C24.25807851295626 21.375, -58.64009297408748 21.375, -107.15625 21.375 M107.15625 21.375 C35.14270929810297 21.375, -36.87083140379406 21.375, -107.15625 21.375 M-107.15625 21.375 C-107.15625 7.72763781835576, -107.15625 -5.919724363288481, -107.15625 -21.375 M-107.15625 21.375 C-107.15625 10.02859278711546, -107.15625 -1.317814425769079, -107.15625 -21.375" stroke="#9370DB" stroke-width="1.3" fill="none" stroke-dasharray="0 0"/></g><g style="" class="row-rect-even"><path d="M-107.15625 21.375 L107.15625 21.375 L107.15625 64.125 L-107.15625 64.125" stroke="none" stroke-width="0" fill="hsl(240, 100%, 97.2745098039%)"/><path d="M-107.15625 21.375 C-40.694598022618536 21.375, 25.76705395476293 21.375, 107.15625 21.375 M-107.15625 21.375 C-54.636087995333945 21.375, -2.1159259906678898 21.375, 107.15625 21.375 M107.15625 21.375 C107.15625 34.235414877217195, 107.15625 47.09582975443439, 107.15625 64.125 M107.15625 21.375 C107.15625 31.915617677474003, 107.15625 42.45623535494801, 107.15625 64.125 M107.15625 64.125 C37.90149208645431 64.125, -31.353265827091377 64.125, -107.15625 64.125 M107.15625 64.125 C44.125263260237254 64.125, -18.90572347952549 64.125, -107.15625 64.125 M-107.15625 64.125 C-107.15625 50.76514737585889, -107.15625 37.405294751717776, -107.15625 21.375 M-107.15625 64.125 C-107.15625 50.97649815245906, -107.15625 37.82799630491812, -107.15625 21.375" stroke="#9370DB" stroke-width="1.3" fill="none" stroke-dasharray="0 0"/></g><g class="label name" transform="translate(-37.09375, -54.75)" style=""><foreignObject width="74.1875" height="24"><div xmlns="http://www.w3.org/1999/xhtml" style="display: table-cell; white-space: nowrap; line-height: 1.5; max-width: 184px; text-align: start;"><span class="nodeLabel"><p>RESOURCE</p></span></div></foreignObject></g><g class="label attribute-type" transform="translate(-94.65625, -12)" style=""><foreignObject width="40.375" height="24"><div xmlns="http://www.w3.org/1999/xhtml" style="display: table-cell; white-space: nowrap; line-height: 1.5; max-width: 136px; text-align: start;"><span class="nodeLabel"><p>string</p></span></div></foreignObject></g><g class="label attribute-name" transform="translate(-29.28125, -12)" style=""><foreignObject width="80.796875" height="24"><div xmlns="http://www.w3.org/1999/xhtml" style="display: table-cell; white-space: nowrap; line-height: 1.5; max-width: 175px; text-align: start;"><span class="nodeLabel"><p>citationKey</p></span></div></foreignObject></g><g class="label attribute-keys" transform="translate(76.515625, -12)" style=""><foreignObject width="18.140625" height="24"><div xmlns="http://www.w3.org/1999/xhtml" style="display: table-cell; white-space: nowrap; line-height: 1.5; max-width: 121px; text-align: start;"><span class="nodeLabel"><p>PK</p></span></div></foreignObject></g><g class="label attribute-comment" transform="translate(119.65625, -12)" style=""><foreignObject width="0" height="0"><div xmlns="http://www.w3.org/1999/xhtml" style="display: table-cell; white-space: nowrap; line-height: 1.5; max-width: 100px; text-align: start;"><span class="nodeLabel"></span></div></foreignObject></g><g class="label attribute-type" transform="translate(-94.65625, 30.75)" style=""><foreignObject width="40.375" height="24"><div xmlns="http://www.w3.org/1999/xhtml" style="display: table-cell; white-space: nowrap; line-height: 1.5; max-width: 136px; text-align: start;"><span class="nodeLabel"><p>string</p></span></div></foreignObject></g><g class="label attribute-name" transform="translate(-29.28125, 30.75)" style=""><foreignObject width="79.65625" height="24"><div xmlns="http://www.w3.org/1999/xhtml" style="display: table-cell; white-space: nowrap; line-height: 1.5; max-width: 174px; text-align: start;"><span class="nodeLabel"><p>sourceType</p></span></div></foreignObject></g><g class="label attribute-keys" transform="translate(76.515625, 30.75)" style=""><foreignObject width="0" height="0"><div xmlns="http://www.w3.org/1999/xhtml" style="display: table-cell; white-space: nowrap; line-height: 1.5; max-width: 100px; text-align: start;"><span class="nodeLabel"></span></div></foreignObject></g><g class="label attribute-comment" transform="translate(119.65625, 30.75)" style=""><foreignObject width="0" height="0"><div xmlns="http://www.w3.org/1999/xhtml" style="display: table-cell; white-space: nowrap; line-height: 1.5; max-width: 100px; text-align: start;"><span class="nodeLabel"></span></div></foreignObject></g><g class="divider"><path d="M-107.15625 -21.375 C-39.57512522077046 -21.375, 28.00599955845908 -21.375, 107.15625 -21.375 M-107.15625 -21.375 C-60.243595755636754 -21.375, -13.330941511273508 -21.375, 107.15625 -21.375" stroke="#9370DB" stroke-width="1.3" fill="none" stroke-dasharray="0 0"/></g><g class="divider"><path d="M-41.78125 -21.375 C-41.78125 6.093683027999326, -41.78125 33.56236605599865, -41.78125 64.125 M-41.78125 -21.375 C-41.78125 7.638715275133823, -41.78125 36.652430550267646, -41.78125 64.125" stroke="#9370DB" stroke-width="1.3" fill="none" stroke-dasharray="0 0"/></g><g class="divider"><path d="M64.015625 -21.375 C64.015625 10.252649983872008, 64.015625 41.880299967744016, 64.015625 64.125 M64.015625 -21.375 C64.015625 -2.826985703426068, 64.015625 15.721028593147864, 64.015625 64.125" stroke="#9370DB" stroke-width="1.3" fill="none" stroke-dasharray="0 0"/></g><g class="divider"><path d="M-107.15625 -21.375 C-60.17040492796774 -21.375, -13.184559855935476 -21.375, 107.15625 -21.375 M-107.15625 -21.375 C-49.38009298713647 -21.375, 8.396064025727057 -21.375, 107.15625 -21.375" stroke="#9370DB" stroke-width="1.3" fill="none" stroke-dasharray="0 0"/></g></g><g class="label edgeLabel" id="entity-TECHNIQUE-0---entity-TECHNIQUE-0---1" transform="translate(1010.6750000007451, 386.875)"><rect width="0.1" height="0.1"/><g class="label" style="" transform="translate(0, 0)"><rect/><foreignObject width="0" height="0"><div xmlns="http://www.w3.org/1999/xhtml" style="display: table-cell; white-space: nowrap; line-height: 1.5; max-width: 10px; text-align: center;"><span class="nodeLabel"></span></div></foreignObject></g></g><g class="label edgeLabel" id="entity-TECHNIQUE-0---entity-TECHNIQUE-0---2" transform="translate(1050.7000000011176, 552.0500000007451)"><rect width="0.1" height="0.1"/><g class="label" style="" transform="translate(0, 0)"><rect/><foreignObject width="0" height="0"><div xmlns="http://www.w3.org/1999/xhtml" style="display: table-cell; white-space: nowrap; line-height: 1.5; max-width: 10px; text-align: center;"><span class="nodeLabel"></span></div></foreignObject></g></g></g></g></g></svg>