<svg id="my-svg" width="100%" xmlns="http://www.w3.org/2000/svg" xmlns:xlink="http://www.w3.org/1999/xlink" class="flowchart" style="max-width: 1017.46px; background-color: white;" viewBox="0 0 1017.46435546875 164.62054443359375" role="graphics-document document" aria-roledescription="flowchart-v2"><style>#my-svg{font-family:"trebuchet ms",verdana,arial,sans-serif;font-size:16px;fill:#333;}@keyframes edge-animation-frame{from{stroke-dashoffset:0;}}@keyframes dash{to{stroke-dashoffset:0;}}#my-svg .edge-animation-slow{stroke-dasharray:9,5!important;stroke-dashoffset:900;animation:dash 50s linear infinite;stroke-linecap:round;}#my-svg .edge-animation-fast{stroke-dasharray:9,5!important;stroke-dashoffset:900;animation:dash 20s linear infinite;stroke-linecap:round;}#my-svg .error-icon{fill:#552222;}#my-svg .error-text{fill:#552222;stroke:#552222;}#my-svg .edge-thickness-normal{stroke-width:1px;}#my-svg .edge-thickness-thick{stroke-width:3.5px;}#my-svg .edge-pattern-solid{stroke-dasharray:0;}#my-svg .edge-thickness-invisible{stroke-width:0;fill:none;}#my-svg .edge-pattern-dashed{stroke-dasharray:3;}#my-svg .edge-pattern-dotted{stroke-dasharray:2;}#my-svg .marker{fill:#333333;stroke:#333333;}#my-svg .marker.cross{stroke:#333333;}#my-svg svg{font-family:"trebuchet ms",verdana,arial,sans-serif;font-size:16px;}#my-svg p{margin:0;}#my-svg .label{font-family:"trebuchet ms",verdana,arial,sans-serif;color:#333;}#my-svg .cluster-label text{fill:#333;}#my-svg .cluster-label span{color:#333;}#my-svg .cluster-label span p{background-color:transparent;}#my-svg .label text,#my-svg span{fill:#333;color:#333;}#my-svg .node rect,#my-svg .node circle,#my-svg .node ellipse,#my-svg .node polygon,#my-svg .node path{fill:#ECECFF;stroke:#9370DB;stroke-width:1px;}#my-svg .rough-node .label text,#my-svg .node .label text,#my-svg .image-shape .label,#my-svg .icon-shape .label{text-anchor:middle;}#my-svg .node .katex path{fill:#000;stroke:#000;stroke-width:1px;}#my-svg .rough-node .label,#my-svg .node .label,#my-svg .image-shape .label,#my-svg .icon-shape .label{text-align:center;}#my-svg .node.clickable{cursor:pointer;}#my-svg .root .anchor path{fill:#333333!important;stroke-width:0;stroke:#333333;}#my-svg .arrowheadPath{fill:#333333;}#my-svg .edgePath .path{stroke:#333333;stroke-width:2.0px;}#my-svg .flowchart-link{stroke:#333333;fill:none;}#my-svg .edgeLabel{background-color:rgba(232,232,232, 0.8);text-align:center;}#my-svg .edgeLabel p{background-color:rgba(232,232,232, 0.8);}#my-svg .edgeLabel rect{opacity:0.5;background-color:rgba(232,232,232, 0.8);fill:rgba(232,232,232, 0.8);}#my-svg .labelBkg{background-color:rgba(232, 232, 232, 0.5);}#my-svg .cluster rect{fill:#ffffde;stroke:#aaaa33;stroke-width:1px;}#my-svg .cluster text{fill:#333;}#my-svg .cluster span{color:#333;}#my-svg div.mermaidTooltip{position:absolute;text-align:center;max-width:200px;padding:2px;font-family:"trebuchet ms",verdana,arial,sans-serif;font-size:12px;background:hsl(80, 100%, 96.2745098039%);border:1px solid #aaaa33;border-radius:2px;pointer-events:none;z-index:100;}#my-svg .flowchartTitleText{text-anchor:middle;font-size:18px;fill:#333;}#my-svg rect.text{fill:none;stroke-width:0;}#my-svg .icon-shape,#my-svg .image-shape{background-color:rgba(232,232,232, 0.8);text-align:center;}#my-svg .icon-shape p,#my-svg .image-shape p{background-color:rgba(232,232,232, 0.8);padding:2px;}#my-svg .icon-shape rect,#my-svg .image-shape rect{opacity:0.5;background-color:rgba(232,232,232, 0.8);fill:rgba(232,232,232, 0.8);}#my-svg .label-icon{display:inline-block;height:1em;overflow:visible;vertical-align:-0.125em;}#my-svg .node .label-icon path{fill:currentColor;stroke:revert;stroke-width:revert;}#my-svg :root{--mermaid-font-family:"trebuchet ms",verdana,arial,sans-serif;}</style><g><marker id="my-svg_flowchart-v2-pointEnd" class="marker flowchart-v2" viewBox="0 0 10 10" refX="5" refY="5" markerUnits="userSpaceOnUse" markerWidth="8" markerHeight="8" orient="auto"><path d="M 0 0 L 10 5 L 0 10 z" class="arrowMarkerPath" style="stroke-width: 1; stroke-dasharray: 1, 0;"/></marker><marker id="my-svg_flowchart-v2-pointStart" class="marker flowchart-v2" viewBox="0 0 10 10" refX="4.5" refY="5" markerUnits="userSpaceOnUse" markerWidth="8" markerHeight="8" orient="auto"><path d="M 0 5 L 10 10 L 10 0 z" class="arrowMarkerPath" style="stroke-width: 1; stroke-dasharray: 1, 0;"/></marker><marker id="my-svg_flowchart-v2-circleEnd" class="marker flowchart-v2" viewBox="0 0 10 10" refX="11" refY="5" markerUnits="userSpaceOnUse" markerWidth="11" markerHeight="11" orient="auto"><circle cx="5" cy="5" r="5" class="arrowMarkerPath" style="stroke-width: 1; stroke-dasharray: 1, 0;"/></marker><marker id="my-svg_flowchart-v2-circleStart" class="marker flowchart-v2" viewBox="0 0 10 10" refX="-1" refY="5" markerUnits="userSpaceOnUse" markerWidth="11" markerHeight="11" orient="auto"><circle cx="5" cy="5" r="5" class="arrowMarkerPath" style="stroke-width: 1; stroke-dasharray: 1, 0;"/></marker><marker id="my-svg_flowchart-v2-crossEnd" class="marker cross flowchart-v2" viewBox="0 0 11 11" refX="12" refY="5.2" markerUnits="userSpaceOnUse" markerWidth="11" markerHeight="11" orient="auto"><path d="M 1,1 l 9,9 M 10,1 l -9,9" class="arrowMarkerPath" style="stroke-width: 2; stroke-dasharray: 1, 0;"/></marker><marker id="my-svg_flowchart-v2-crossStart" class="marker cross flowchart-v2" viewBox="0 0 11 11" refX="-1" refY="5.2" markerUnits="userSpaceOnUse" markerWidth="11" markerHeight="11" orient="auto"><path d="M 1,1 l 9,9 M 10,1 l -9,9" class="arrowMarkerPath" style="stroke-width: 2; stroke-dasharray: 1, 0;"/></marker><g class="root"><g class="clusters"><g class="cluster" id="Data" data-look="classic"><rect style="" x="819.4799613952637" y="8" width="189.984375" height="148.62055206298828"/><g class="cluster-label" transform="translate(867.2299613952637, 8)"><foreignObject width="94.484375" height="24"><div xmlns="http://www.w3.org/1999/xhtml" style="display: table-cell; white-space: nowrap; line-height: 1.5; max-width: 200px; text-align: center;"><span class="nodeLabel"><p>GitHub Pages</p></span></div></foreignObject></g></g><g class="cluster" id="Server" data-look="classic"><rect style="" x="409.9487113952637" y="8.31027603149414" width="254.46875" height="148"/><g class="cluster-label" transform="translate(476.0033988952637, 8.31027603149414)"><foreignObject width="122.359375" height="24"><div xmlns="http://www.w3.org/1999/xhtml" style="display: table-cell; white-space: nowrap; line-height: 1.5; max-width: 200px; text-align: center;"><span class="nodeLabel"><p>Local MCP Server</p></span></div></foreignObject></g></g><g class="cluster" id="Client" data-look="classic"><rect style="" x="8" y="20.31027603149414" width="258.4330863952637" height="124"/><g class="cluster-label" transform="translate(74.20873069763184, 20.31027603149414)"><foreignObject width="126.015625" height="24"><div xmlns="http://www.w3.org/1999/xhtml" style="display: table-cell; white-space: nowrap; line-height: 1.5; max-width: 200px; text-align: center;"><span class="nodeLabel"><p>Your Environment</p></span></div></foreignObject></g></g></g><g class="edgePaths"><path d="M82.855,82.81L86.938,82.727C91.022,82.644,99.188,82.477,106.772,82.394C114.355,82.31,121.355,82.31,124.855,82.31L128.355,82.31" id="L_User_Claude_0" class="edge-thickness-normal edge-pattern-solid edge-thickness-normal edge-pattern-solid flowchart-link" style=";" data-edge="true" data-et="edge" data-id="L_User_Claude_0" data-points="W3sieCI6ODIuODU0OTYyNDMxODI3MTMsInkiOjgyLjgxMDI3NjAzMTQ5NDE0fSx7IngiOjEwNy4zNTQ5NjEzOTUyNjM2NywieSI6ODIuMzEwMjc2MDMxNDk0MTR9LHsieCI6MTMyLjM1NDk2MTM5NTI2MzY3LCJ5Ijo4Mi4zMTAyNzYwMzE0OTQxNH1d" marker-end="url(#my-svg_flowchart-v2-pointEnd)"/><path d="M245.433,82.31L248.933,82.31C252.433,82.31,259.433,82.31,274.893,82.31C290.352,82.31,314.272,82.31,338.191,82.31C362.11,82.31,386.029,82.31,401.489,82.31C416.949,82.31,423.949,82.31,427.449,82.31L430.949,82.31" id="L_Claude_MCP_0" class="edge-thickness-normal edge-pattern-solid edge-thickness-normal edge-pattern-solid flowchart-link" style=";" data-edge="true" data-et="edge" data-id="L_Claude_MCP_0" data-points="W3sieCI6MjQxLjQzMzA4NjM5NTI2MzY3LCJ5Ijo4Mi4zMTAyNzYwMzE0OTQxNH0seyJ4IjoyNjYuNDMzMDg2Mzk1MjYzNywieSI6ODIuMzEwMjc2MDMxNDk0MTR9LHsieCI6MzM4LjE5MDg5ODg5NTI2MzcsInkiOjgyLjMxMDI3NjAzMTQ5NDE0fSx7IngiOjQwOS45NDg3MTEzOTUyNjM3LCJ5Ijo4Mi4zMTAyNzYwMzE0OTQxNH0seyJ4Ijo0MzQuOTQ4NzExMzk1MjYzNywieSI6ODIuMzEwMjc2MDMxNDk0MTR9XQ==" marker-start="url(#my-svg_flowchart-v2-pointStart)" marker-end="url(#my-svg_flowchart-v2-pointEnd)"/><path d="M639.417,82.31L643.584,82.31C647.751,82.31,656.084,82.31,673.173,82.31C690.261,82.31,716.105,82.31,741.949,82.31C767.792,82.31,793.636,82.31,810.058,82.31C826.48,82.31,833.48,82.31,836.98,82.31L840.48,82.31" id="L_MCP_KG_0" class="edge-thickness-normal edge-pattern-solid edge-thickness-normal edge-pattern-solid flowchart-link" style=";" data-edge="true" data-et="edge" data-id="L_MCP_KG_0" data-points="W3sieCI6NjM5LjQxNzQ2MTM5NTI2MzcsInkiOjgyLjMxMDI3NjAzMTQ5NDE0fSx7IngiOjY2NC40MTc0NjEzOTUyNjM3LCJ5Ijo4Mi4zMTAyNzYwMzE0OTQxNH0seyJ4Ijo3NDEuOTQ4NzExMzk1MjYzNywieSI6ODIuMzEwMjc2MDMxNDk0MTR9LHsieCI6ODE5LjQ3OTk2MTM5NTI2MzcsInkiOjgyLjMxMDI3NjAzMTQ5NDE0fSx7IngiOjg0NC40Nzk5NjEzOTUyNjM3LCJ5Ijo4Mi4zMTAyNzYwMzE0OTQxNH1d" marker-end="url(#my-svg_flowchart-v2-pointEnd)"/></g><g class="edgeLabels"><g class="edgeLabel"><g class="label" data-id="L_User_Claude_0" transform="translate(0, 0)"><foreignObject width="0" height="0"><div xmlns="http://www.w3.org/1999/xhtml" class="labelBkg" style="display: table-cell; white-space: nowrap; line-height: 1.5; max-width: 200px; text-align: center;"><span class="edgeLabel"></span></div></foreignObject></g></g><g class="edgeLabel" transform="translate(338.1908988952637, 82.31027603149414)"><g class="label" data-id="L_Claude_MCP_0" transform="translate(-46.7578125, -12)"><foreignObject width="93.515625" height="24"><div xmlns="http://www.w3.org/1999/xhtml" class="labelBkg" style="display: table-cell; white-space: nowrap; line-height: 1.5; max-width: 200px; text-align: center;"><span class="edgeLabel"><p>MCP Protocol</p></span></div></foreignObject></g></g><g class="edgeLabel" transform="translate(741.9487113952637, 82.31027603149414)"><g class="label" data-id="L_MCP_KG_0" transform="translate(-52.53125, -12)"><foreignObject width="105.0625" height="24"><div xmlns="http://www.w3.org/1999/xhtml" class="labelBkg" style="display: table-cell; white-space: nowrap; line-height: 1.5; max-width: 200px; text-align: center;"><span class="edgeLabel"><p>Fetch JSON-LD</p></span></div></foreignObject></g></g></g><g class="nodes"><g class="node default" id="flowchart-User-0" transform="translate(57.677480697631836, 82.31027603149414)"><g class="basic label-container outer-path"><path d="M-5.1875 -19.5 C-2.2413384920227832 -19.5, 0.7048230159544335 -19.5, 5.1875 -19.5 C5.1875 -19.5, 5.187499999999999 -19.5, 5.187499999999999 -19.5 C5.501047229665388 -19.48994515062729, 5.814594459330776 -19.47989030125458, 6.4368692896239 -19.45993515863156 C6.866977604600342 -19.41844312676671, 7.2970859195767845 -19.376951094901862, 7.681104652847864 -19.3399052695533 C8.048738423917914 -19.28046909248917, 8.416372194987964 -19.221032915425038, 8.915093259676757 -19.140403561325776 C9.303463484176673 -19.051760591936233, 9.691833708676587 -18.96311762254669, 10.13376438623539 -18.862249829261074 C10.581948717093217 -18.729231072430032, 11.030133047951045 -18.59621231559899, 11.332110251460602 -18.50658706670804 C11.713511538117544 -18.36622786758344, 12.094912824774486 -18.22586866845884, 12.505206595147794 -18.074876768247425 C12.799745641821877 -17.944493069475197, 13.094284688495959 -17.814109370702965, 13.648232912792382 -17.568892924097174 C13.957859662371458 -17.40736084716717, 14.267486411950532 -17.245828770237164, 14.756492264076783 -16.990714730406097 C15.00139967632174 -16.842250417867497, 15.246307088566697 -16.693786105328897, 15.825430573605697 -16.342718045390892 C16.08748413280831 -16.159920826606893, 16.349537692010927 -15.977123607822891, 16.850655344578712 -15.627565626425154 C17.212942425081856 -15.338651320588, 17.575229505585 -15.049737014750844, 17.82795370850187 -14.848196188198123 C18.051925611966823 -14.644790831443087, 18.275897515431772 -14.441385474688051, 18.753309736767985 -14.007812326905688 C18.987346885551524 -13.766149755979422, 19.221384034335063 -13.524487185053156, 19.622920942968648 -13.10986736009568 C19.923320221918143 -12.757001273838405, 20.223719500867638 -12.40413518758113, 20.433213908126582 -12.158051136245305 C20.70677852150995 -11.791499476560569, 20.980343134893317 -11.424947816875832, 21.180858964640635 -11.156274872382312 C21.44658167551253 -10.748053431944356, 21.712304386384425 -10.339831991506399, 21.862783878604247 -10.108655082055241 C22.08929350314512 -9.706464307096276, 22.315803127685996 -9.30427353213731, 22.4761864742735 -9.019496659696287 C22.6874916770875 -8.580716884845957, 22.898796879901504 -8.141937109995625, 23.01854614880834 -7.893275190886684 C23.1918106481855 -7.465308527583898, 23.365075147562656 -7.037341864281111, 23.487634229970325 -6.734618561215508 C23.595808540789996 -6.408814772262496, 23.703982851609666 -6.083010983309485, 23.88152313421488 -5.548287939305138 C23.948886526638315 -5.291402128515631, 24.016249919061746 -5.034516317726123, 24.19859428754556 -4.339158212148133 C24.26370096251363 -4.004849196487713, 24.328807637481702 -3.6705401808272926, 24.437544776581777 -3.1121979531509023 C24.48070234902539 -2.7774763437048775, 24.523859921469 -2.442754734258853, 24.597392702509367 -1.872449005199798 C24.62706713557586 -1.4102457574178857, 24.656741568642357 -0.9480425096359735, 24.677481215913414 -0.6250057626472757 C24.677481215913414 -0.29955302025499475, 24.677481215913414 0.025899722137286196, 24.677481215913414 0.625005762647271 C24.652183488129488 1.0190382928402575, 24.626885760345562 1.413070823033244, 24.597392702509367 1.8724490051997846 C24.56154570147999 2.150471266392627, 24.525698700450608 2.42849352758547, 24.437544776581777 3.1121979531508885 C24.36808230030617 3.4688730879265792, 24.29861982403056 3.8255482227022695, 24.19859428754556 4.339158212148129 C24.09062641475851 4.750886504657225, 23.982658541971457 5.162614797166321, 23.881523134214884 5.548287939305125 C23.79315932040907 5.814425667626453, 23.704795506603258 6.08056339594778, 23.48763422997033 6.734618561215495 C23.389182353363385 6.977796599872192, 23.29073047675644 7.220974638528888, 23.018546148808344 7.893275190886679 C22.82991796492364 8.28496565071985, 22.641289781038935 8.676656110553019, 22.476186474273504 9.019496659696284 C22.288798349762875 9.3522232498701, 22.10141022525225 9.684949840043918, 21.86278387860425 10.108655082055236 C21.631130624724605 10.464536687622925, 21.39947737084496 10.820418293190615, 21.18085896464064 11.156274872382301 C20.943877778888623 11.473808071859846, 20.70689659313661 11.79134127133739, 20.433213908126582 12.158051136245302 C20.231030643449714 12.39554710348842, 20.02884737877285 12.633043070731539, 19.62292094296866 13.10986736009567 C19.36467895395163 13.376523415817356, 19.1064369649346 13.643179471539042, 18.75330973676799 14.007812326905684 C18.422031035165123 14.30867087854728, 18.090752333562254 14.609529430188877, 17.827953708501887 14.848196188198111 C17.4736623860349 15.130734089777489, 17.11937106356791 15.413271991356867, 16.850655344578715 15.627565626425152 C16.599024114824463 15.803092679361347, 16.34739288507021 15.978619732297542, 15.825430573605708 16.34271804539089 C15.572405375859722 16.496103407205617, 15.319380178113738 16.64948876902034, 14.756492264076787 16.990714730406093 C14.396278653226277 17.178637940458973, 14.036065042375766 17.366561150511856, 13.648232912792386 17.56889292409717 C13.241927413209199 17.748752316138233, 12.835621913626012 17.928611708179297, 12.505206595147804 18.07487676824742 C12.22631894079309 18.177510003059172, 11.947431286438379 18.28014323787092, 11.332110251460616 18.506587066708033 C10.920200517213171 18.62883971367436, 10.508290782965725 18.751092360640687, 10.133764386235413 18.86224982926107 C9.873530718108375 18.921646465827678, 9.613297049981337 18.98104310239429, 8.915093259676766 19.140403561325773 C8.60134509958994 19.19112793069529, 8.287596939503114 19.241852300064807, 7.681104652847878 19.3399052695533 C7.2770565467553325 19.378883304409104, 6.873008440662787 19.41786133926491, 6.436869289623901 19.45993515863156 C5.982538497136878 19.474504662845376, 5.528207704649855 19.489074167059197, 5.1875000000000036 19.5 C5.187500000000003 19.5, 5.187500000000002 19.5, 5.1875 19.5 C2.983982720429533 19.5, 0.7804654408590661 19.5, -5.1874999999999964 19.5 C-5.524102803421067 19.4892058032519, -5.860705606842136 19.478411606503794, -6.4368692896238935 19.45993515863156 C-6.726081469777662 19.43203520744066, -7.01529364993143 19.404135256249763, -7.681104652847871 19.3399052695533 C-8.015218569970566 19.285888322525025, -8.349332487093262 19.231871375496755, -8.915093259676759 19.140403561325773 C-9.212511058845697 19.072519889497983, -9.509928858014636 19.004636217670193, -10.133764386235388 18.862249829261074 C-10.499781824286648 18.7536177749122, -10.865799262337909 18.644985720563323, -11.332110251460593 18.506587066708043 C-11.618459122583271 18.401208035154948, -11.90480799370595 18.295829003601856, -12.505206595147797 18.074876768247425 C-12.851256935141627 17.921690547950767, -13.197307275135458 17.76850432765411, -13.64823291279238 17.568892924097174 C-13.949817595083816 17.41155638851994, -14.251402277375252 17.254219852942708, -14.75649226407678 16.990714730406097 C-15.130697593860706 16.76386926041647, -15.504902923644634 16.53702379042684, -15.825430573605686 16.3427180453909 C-16.109654685520177 16.144455608782852, -16.39387879743467 15.946193172174807, -16.850655344578712 15.627565626425156 C-17.191406559223015 15.355825600516969, -17.532157773867315 15.084085574608782, -17.82795370850187 14.848196188198125 C-18.08825188692807 14.611800269663847, -18.34855006535427 14.375404351129571, -18.753309736767974 14.007812326905697 C-18.98860322624121 13.764852481069832, -19.223896715714442 13.521892635233968, -19.622920942968655 13.109867360095677 C-19.860362376801536 12.830955141115247, -20.097803810634414 12.552042922134817, -20.43321390812658 12.158051136245307 C-20.699958068107318 11.80063826276401, -20.966702228088053 11.443225389282713, -21.180858964640635 11.156274872382316 C-21.318196893645016 10.945286933033906, -21.455534822649398 10.734298993685497, -21.862783878604244 10.108655082055249 C-21.992119254497812 9.879007025529258, -22.12145463039138 9.64935896900327, -22.4761864742735 9.019496659696289 C-22.674862342492414 8.606941968357129, -22.873538210711327 8.194387277017968, -23.01854614880834 7.893275190886686 C-23.147467534598213 7.574836875460276, -23.276388920388083 7.256398560033865, -23.487634229970325 6.73461856121551 C-23.61676193536333 6.345706486277676, -23.745889640756328 5.9567944113398426, -23.88152313421488 5.5482879393051325 C-23.94680844268038 5.299326763294521, -24.012093751145873 5.050365587283909, -24.198594287545557 4.339158212148136 C-24.270603040318274 3.9694084857155243, -24.34261179309099 3.5996587592829132, -24.437544776581777 3.112197953150904 C-24.50071258520409 2.622280903370946, -24.563880393826402 2.132363853590988, -24.597392702509364 1.872449005199809 C-24.613434347293325 1.6225874391070272, -24.629475992077282 1.3727258730142453, -24.677481215913414 0.6250057626472781 C-24.677481215913414 0.19519951463779328, -24.677481215913414 -0.23460673337169158, -24.677481215913414 -0.6250057626472687 C-24.658057519143377 -0.927545518366419, -24.638633822373343 -1.2300852740855692, -24.597392702509367 -1.8724490051997822 C-24.550842643233896 -2.233482072591418, -24.504292583958424 -2.594515139983054, -24.437544776581777 -3.112197953150895 C-24.365879047506173 -3.480186325396925, -24.294213318430568 -3.8481746976429547, -24.19859428754556 -4.339158212148126 C-24.10812002630489 -4.684175782051679, -24.017645765064213 -5.029193351955232, -23.881523134214884 -5.548287939305123 C-23.750551854122502 -5.942752567503747, -23.619580574030124 -6.3372171957023715, -23.487634229970332 -6.734618561215485 C-23.365948232994445 -7.035185326384635, -23.244262236018553 -7.335752091553785, -23.018546148808344 -7.893275190886676 C-22.866266977513423 -8.209486148332887, -22.7139878062185 -8.525697105779097, -22.476186474273504 -9.019496659696282 C-22.278357883575527 -9.370761354797576, -22.080529292877554 -9.722026049898872, -21.862783878604247 -10.108655082055243 C-21.66228929219702 -10.416668607111555, -21.461794705789792 -10.724682132167866, -21.18085896464064 -11.156274872382308 C-21.011508931653033 -11.383188488480313, -20.842158898665424 -11.610102104578317, -20.433213908126586 -12.158051136245302 C-20.22488076113367 -12.402771105195068, -20.01654761414075 -12.647491074144835, -19.622920942968662 -13.10986736009567 C-19.424043350493072 -13.315224802480719, -19.225165758017486 -13.520582244865768, -18.753309736767996 -14.007812326905677 C-18.411766260627996 -14.317993075190845, -18.070222784487996 -14.628173823476013, -17.827953708501887 -14.848196188198107 C-17.613828093745653 -15.018955667844288, -17.399702478989422 -15.189715147490471, -16.85065534457872 -15.627565626425149 C-16.493231473900387 -15.876889045980368, -16.135807603222055 -16.126212465535588, -15.825430573605711 -16.342718045390885 C-15.433706653556404 -16.58018338775005, -15.041982733507098 -16.817648730109212, -14.756492264076789 -16.99071473040609 C-14.465239979873886 -17.142660860518752, -14.173987695670984 -17.294606990631415, -13.64823291279239 -17.56889292409717 C-13.283243759484131 -17.730462795248187, -12.918254606175873 -17.892032666399206, -12.505206595147806 -18.07487676824742 C-12.208140043452763 -18.184200005324296, -11.911073491757723 -18.293523242401175, -11.332110251460618 -18.506587066708033 C-11.03676260057474 -18.594244699179505, -10.741414949688862 -18.681902331650978, -10.133764386235413 -18.862249829261067 C-9.800335328075038 -18.938352835958227, -9.466906269914665 -19.014455842655387, -8.915093259676768 -19.140403561325773 C-8.508084011177386 -19.20620566021929, -8.101074762678007 -19.272007759112807, -7.68110465284788 -19.3399052695533 C-7.243355854253422 -19.38213436968375, -6.805607055658964 -19.424363469814203, -6.436869289623903 -19.45993515863156 C-6.148180682880494 -19.469192840351536, -5.859492076137085 -19.478450522071512, -5.187500000000006 -19.5 C-5.187500000000005 -19.5, -5.1875000000000036 -19.5, -5.1875 -19.5" stroke="none" stroke-width="0" fill="#ECECFF" style=""/><path d="M-5.1875 -19.5 C-2.0705442673333336 -19.5, 1.0464114653333327 -19.5, 5.1875 -19.5 M-5.1875 -19.5 C-2.2759699007540344 -19.5, 0.6355601984919312 -19.5, 5.1875 -19.5 M5.1875 -19.5 C5.1875 -19.5, 5.1875 -19.5, 5.187499999999999 -19.5 M5.1875 -19.5 C5.1875 -19.5, 5.187499999999999 -19.5, 5.187499999999999 -19.5 M5.187499999999999 -19.5 C5.549903276674505 -19.488378432292233, 5.912306553349012 -19.47675686458447, 6.4368692896239 -19.45993515863156 M5.187499999999999 -19.5 C5.679387986074008 -19.48422610968849, 6.171275972148019 -19.468452219376978, 6.4368692896239 -19.45993515863156 M6.4368692896239 -19.45993515863156 C6.794326775119803 -19.425451664911293, 7.151784260615706 -19.390968171191027, 7.681104652847864 -19.3399052695533 M6.4368692896239 -19.45993515863156 C6.809217679589045 -19.424015157266076, 7.181566069554191 -19.388095155900597, 7.681104652847864 -19.3399052695533 M7.681104652847864 -19.3399052695533 C8.070610518902244 -19.276932981792733, 8.460116384956626 -19.213960694032167, 8.915093259676757 -19.140403561325776 M7.681104652847864 -19.3399052695533 C8.036110055550134 -19.28251074915241, 8.391115458252404 -19.225116228751524, 8.915093259676757 -19.140403561325776 M8.915093259676757 -19.140403561325776 C9.352179316505975 -19.040641521107585, 9.789265373335192 -18.940879480889393, 10.13376438623539 -18.862249829261074 M8.915093259676757 -19.140403561325776 C9.35978815967828 -19.038904852305848, 9.804483059679802 -18.93740614328592, 10.13376438623539 -18.862249829261074 M10.13376438623539 -18.862249829261074 C10.41790055711808 -18.77791970520429, 10.702036728000767 -18.693589581147503, 11.332110251460602 -18.50658706670804 M10.13376438623539 -18.862249829261074 C10.45410310150582 -18.76717498006104, 10.774441816776251 -18.672100130861008, 11.332110251460602 -18.50658706670804 M11.332110251460602 -18.50658706670804 C11.722260979740481 -18.363007992187246, 12.112411708020362 -18.219428917666452, 12.505206595147794 -18.074876768247425 M11.332110251460602 -18.50658706670804 C11.758245350726051 -18.349765411028677, 12.184380449991503 -18.192943755349315, 12.505206595147794 -18.074876768247425 M12.505206595147794 -18.074876768247425 C12.862608794580002 -17.916665416518345, 13.22001099401221 -17.758454064789266, 13.648232912792382 -17.568892924097174 M12.505206595147794 -18.074876768247425 C12.92306292779245 -17.889904165053338, 13.34091926043711 -17.70493156185925, 13.648232912792382 -17.568892924097174 M13.648232912792382 -17.568892924097174 C13.909390379034393 -17.432647241238058, 14.170547845276404 -17.296401558378943, 14.756492264076783 -16.990714730406097 M13.648232912792382 -17.568892924097174 C14.080534656829489 -17.343361381135498, 14.512836400866595 -17.117829838173822, 14.756492264076783 -16.990714730406097 M14.756492264076783 -16.990714730406097 C15.071421496485508 -16.79980277899033, 15.386350728894232 -16.608890827574562, 15.825430573605697 -16.342718045390892 M14.756492264076783 -16.990714730406097 C15.011917217407335 -16.835874622653478, 15.267342170737889 -16.681034514900855, 15.825430573605697 -16.342718045390892 M15.825430573605697 -16.342718045390892 C16.21614243292559 -16.070174365973127, 16.60685429224548 -15.797630686555362, 16.850655344578712 -15.627565626425154 M15.825430573605697 -16.342718045390892 C16.230665691471927 -16.06004356951293, 16.635900809338153 -15.77736909363497, 16.850655344578712 -15.627565626425154 M16.850655344578712 -15.627565626425154 C17.226876441241934 -15.327539313500079, 17.603097537905157 -15.027513000575004, 17.82795370850187 -14.848196188198123 M16.850655344578712 -15.627565626425154 C17.075640001324626 -15.448146349763444, 17.300624658070543 -15.268727073101735, 17.82795370850187 -14.848196188198123 M17.82795370850187 -14.848196188198123 C18.168626942752258 -14.538805770571763, 18.509300177002647 -14.229415352945402, 18.753309736767985 -14.007812326905688 M17.82795370850187 -14.848196188198123 C18.100130492800602 -14.601012434101104, 18.372307277099335 -14.353828680004083, 18.753309736767985 -14.007812326905688 M18.753309736767985 -14.007812326905688 C18.999938724143977 -13.753147648823541, 19.246567711519965 -13.498482970741392, 19.622920942968648 -13.10986736009568 M18.753309736767985 -14.007812326905688 C19.097773643541178 -13.652125062149663, 19.44223755031437 -13.29643779739364, 19.622920942968648 -13.10986736009568 M19.622920942968648 -13.10986736009568 C19.906650844381726 -12.776582073207132, 20.190380745794805 -12.443296786318584, 20.433213908126582 -12.158051136245305 M19.622920942968648 -13.10986736009568 C19.84165157969032 -12.85293390807659, 20.060382216412 -12.5960004560575, 20.433213908126582 -12.158051136245305 M20.433213908126582 -12.158051136245305 C20.59334682896044 -11.943487610737137, 20.753479749794295 -11.728924085228968, 21.180858964640635 -11.156274872382312 M20.433213908126582 -12.158051136245305 C20.721886643997873 -11.771255968805026, 21.010559379869164 -11.384460801364744, 21.180858964640635 -11.156274872382312 M21.180858964640635 -11.156274872382312 C21.40843286576069 -10.80666024811295, 21.636006766880744 -10.45704562384359, 21.862783878604247 -10.108655082055241 M21.180858964640635 -11.156274872382312 C21.4469620202996 -10.74746912021454, 21.713065075958564 -10.338663368046767, 21.862783878604247 -10.108655082055241 M21.862783878604247 -10.108655082055241 C21.991300340732547 -9.880461089843495, 22.11981680286085 -9.65226709763175, 22.4761864742735 -9.019496659696287 M21.862783878604247 -10.108655082055241 C22.057701625599844 -9.762558884702411, 22.252619372595436 -9.416462687349581, 22.4761864742735 -9.019496659696287 M22.4761864742735 -9.019496659696287 C22.617250392182633 -8.72657441587365, 22.758314310091766 -8.433652172051012, 23.01854614880834 -7.893275190886684 M22.4761864742735 -9.019496659696287 C22.689696175374657 -8.576139196983972, 22.903205876475813 -8.132781734271655, 23.01854614880834 -7.893275190886684 M23.01854614880834 -7.893275190886684 C23.134057283878644 -7.607960454007172, 23.249568418948943 -7.322645717127658, 23.487634229970325 -6.734618561215508 M23.01854614880834 -7.893275190886684 C23.166470761228133 -7.527898538281971, 23.31439537364793 -7.1625218856772594, 23.487634229970325 -6.734618561215508 M23.487634229970325 -6.734618561215508 C23.629939910226902 -6.306016525613746, 23.77224559048348 -5.877414490011984, 23.88152313421488 -5.548287939305138 M23.487634229970325 -6.734618561215508 C23.570958128672324 -6.4836602541854464, 23.654282027374325 -6.232701947155385, 23.88152313421488 -5.548287939305138 M23.88152313421488 -5.548287939305138 C23.957726283637548 -5.257692303902632, 24.033929433060216 -4.967096668500127, 24.19859428754556 -4.339158212148133 M23.88152313421488 -5.548287939305138 C23.981800620071414 -5.1658864251968835, 24.082078105927952 -4.783484911088629, 24.19859428754556 -4.339158212148133 M24.19859428754556 -4.339158212148133 C24.265916300916885 -3.9934739019989483, 24.33323831428821 -3.6477895918497634, 24.437544776581777 -3.1121979531509023 M24.19859428754556 -4.339158212148133 C24.248723288402505 -4.081756387515798, 24.298852289259454 -3.8243545628834625, 24.437544776581777 -3.1121979531509023 M24.437544776581777 -3.1121979531509023 C24.483893915600508 -2.7527231835943597, 24.53024305461924 -2.393248414037817, 24.597392702509367 -1.872449005199798 M24.437544776581777 -3.1121979531509023 C24.487759881337926 -2.7227395167562465, 24.53797498609407 -2.333281080361591, 24.597392702509367 -1.872449005199798 M24.597392702509367 -1.872449005199798 C24.618168747377776 -1.5488453362527346, 24.638944792246186 -1.2252416673056714, 24.677481215913414 -0.6250057626472757 M24.597392702509367 -1.872449005199798 C24.62435912515417 -1.4524252056023603, 24.65132554779898 -1.0324014060049227, 24.677481215913414 -0.6250057626472757 M24.677481215913414 -0.6250057626472757 C24.677481215913414 -0.27551966715790754, 24.677481215913414 0.07396642833146061, 24.677481215913414 0.625005762647271 M24.677481215913414 -0.6250057626472757 C24.677481215913414 -0.30954981650778035, 24.677481215913414 0.005906129631714996, 24.677481215913414 0.625005762647271 M24.677481215913414 0.625005762647271 C24.65960098349297 0.9035048152595112, 24.64172075107253 1.1820038678717513, 24.597392702509367 1.8724490051997846 M24.677481215913414 0.625005762647271 C24.650405047006874 1.0467389488567753, 24.623328878100338 1.4684721350662797, 24.597392702509367 1.8724490051997846 M24.597392702509367 1.8724490051997846 C24.534406695277177 2.360956039298684, 24.47142068804499 2.849463073397584, 24.437544776581777 3.1121979531508885 M24.597392702509367 1.8724490051997846 C24.538593792083237 2.3284817433066642, 24.47979488165711 2.7845144814135434, 24.437544776581777 3.1121979531508885 M24.437544776581777 3.1121979531508885 C24.359284929839514 3.514045725947947, 24.28102508309725 3.915893498745005, 24.19859428754556 4.339158212148129 M24.437544776581777 3.1121979531508885 C24.377862760868513 3.418652490040016, 24.31818074515525 3.7251070269291437, 24.19859428754556 4.339158212148129 M24.19859428754556 4.339158212148129 C24.079098534247795 4.79484730925959, 23.959602780950032 5.250536406371053, 23.881523134214884 5.548287939305125 M24.19859428754556 4.339158212148129 C24.109364634658892 4.679429550981187, 24.020134981772223 5.019700889814246, 23.881523134214884 5.548287939305125 M23.881523134214884 5.548287939305125 C23.745273395166837 5.958650444869992, 23.60902365611879 6.3690129504348585, 23.48763422997033 6.734618561215495 M23.881523134214884 5.548287939305125 C23.75652135351216 5.9247733864526655, 23.631519572809438 6.301258833600206, 23.48763422997033 6.734618561215495 M23.48763422997033 6.734618561215495 C23.38321045935849 6.992547293522994, 23.278786688746653 7.250476025830494, 23.018546148808344 7.893275190886679 M23.48763422997033 6.734618561215495 C23.30831615768456 7.177537666640424, 23.12899808539879 7.620456772065353, 23.018546148808344 7.893275190886679 M23.018546148808344 7.893275190886679 C22.81978782329995 8.306001106551745, 22.62102949779156 8.718727022216811, 22.476186474273504 9.019496659696284 M23.018546148808344 7.893275190886679 C22.82153663926753 8.302369652776397, 22.62452712972672 8.711464114666116, 22.476186474273504 9.019496659696284 M22.476186474273504 9.019496659696284 C22.31873092778757 9.299074926585062, 22.161275381301635 9.57865319347384, 21.86278387860425 10.108655082055236 M22.476186474273504 9.019496659696284 C22.27990278404694 9.368018227572454, 22.08361909382037 9.716539795448625, 21.86278387860425 10.108655082055236 M21.86278387860425 10.108655082055236 C21.680496700327552 10.388697138849391, 21.498209522050857 10.668739195643546, 21.18085896464064 11.156274872382301 M21.86278387860425 10.108655082055236 C21.652870046545626 10.431139097853698, 21.442956214487005 10.753623113652163, 21.18085896464064 11.156274872382301 M21.18085896464064 11.156274872382301 C20.971986440453726 11.436145026114357, 20.763113916266814 11.716015179846412, 20.433213908126582 12.158051136245302 M21.18085896464064 11.156274872382301 C20.911331236299844 11.517417473877787, 20.641803507959043 11.878560075373272, 20.433213908126582 12.158051136245302 M20.433213908126582 12.158051136245302 C20.16158164879228 12.47712584437279, 19.889949389457975 12.796200552500277, 19.62292094296866 13.10986736009567 M20.433213908126582 12.158051136245302 C20.176584336112903 12.45950283416889, 19.919954764099227 12.760954532092478, 19.62292094296866 13.10986736009567 M19.62292094296866 13.10986736009567 C19.285929729006266 13.457838456005051, 18.948938515043874 13.805809551914432, 18.75330973676799 14.007812326905684 M19.62292094296866 13.10986736009567 C19.391541482647167 13.348785649484592, 19.160162022325675 13.587703938873513, 18.75330973676799 14.007812326905684 M18.75330973676799 14.007812326905684 C18.532805564588486 14.208068381858418, 18.312301392408983 14.408324436811151, 17.827953708501887 14.848196188198111 M18.75330973676799 14.007812326905684 C18.49000725602355 14.246936673315902, 18.22670477527911 14.486061019726122, 17.827953708501887 14.848196188198111 M17.827953708501887 14.848196188198111 C17.50028291797609 15.109504923956496, 17.172612127450293 15.37081365971488, 16.850655344578715 15.627565626425152 M17.827953708501887 14.848196188198111 C17.56137376185051 15.060786601662274, 17.294793815199135 15.273377015126437, 16.850655344578715 15.627565626425152 M16.850655344578715 15.627565626425152 C16.496775770505337 15.874416698098882, 16.142896196431956 16.12126776977261, 15.825430573605708 16.34271804539089 M16.850655344578715 15.627565626425152 C16.633043209277456 15.779362431733801, 16.4154310739762 15.93115923704245, 15.825430573605708 16.34271804539089 M15.825430573605708 16.34271804539089 C15.495517997789387 16.54271298763224, 15.165605421973067 16.74270792987359, 14.756492264076787 16.990714730406093 M15.825430573605708 16.34271804539089 C15.446883034089321 16.57219578843799, 15.068335494572933 16.801673531485093, 14.756492264076787 16.990714730406093 M14.756492264076787 16.990714730406093 C14.52105010105665 17.113544756045794, 14.285607938036513 17.236374781685498, 13.648232912792386 17.56889292409717 M14.756492264076787 16.990714730406093 C14.329022943407175 17.21372520119226, 13.901553622737563 17.43673567197843, 13.648232912792386 17.56889292409717 M13.648232912792386 17.56889292409717 C13.371079273660172 17.691580618670407, 13.093925634527958 17.81426831324364, 12.505206595147804 18.07487676824742 M13.648232912792386 17.56889292409717 C13.20407561163854 17.765508185859765, 12.759918310484696 17.962123447622357, 12.505206595147804 18.07487676824742 M12.505206595147804 18.07487676824742 C12.06766149143734 18.235897411035474, 11.630116387726876 18.396918053823523, 11.332110251460616 18.506587066708033 M12.505206595147804 18.07487676824742 C12.193788544139663 18.189481489735325, 11.882370493131521 18.304086211223225, 11.332110251460616 18.506587066708033 M11.332110251460616 18.506587066708033 C10.922262283913296 18.628227792140198, 10.512414316365975 18.74986851757236, 10.133764386235413 18.86224982926107 M11.332110251460616 18.506587066708033 C10.91821299753552 18.629429599081984, 10.504315743610421 18.752272131455932, 10.133764386235413 18.86224982926107 M10.133764386235413 18.86224982926107 C9.683846890495188 18.964940561677736, 9.233929394754963 19.067631294094397, 8.915093259676766 19.140403561325773 M10.133764386235413 18.86224982926107 C9.66394276101738 18.96948354934446, 9.194121135799348 19.07671726942785, 8.915093259676766 19.140403561325773 M8.915093259676766 19.140403561325773 C8.592993946616563 19.192478080343868, 8.270894633556358 19.244552599361963, 7.681104652847878 19.3399052695533 M8.915093259676766 19.140403561325773 C8.588677955948963 19.193175856243997, 8.26226265222116 19.24594815116222, 7.681104652847878 19.3399052695533 M7.681104652847878 19.3399052695533 C7.295616661400331 19.377092832471103, 6.910128669952783 19.41428039538891, 6.436869289623901 19.45993515863156 M7.681104652847878 19.3399052695533 C7.301198199938166 19.376554388161143, 6.921291747028454 19.413203506768983, 6.436869289623901 19.45993515863156 M6.436869289623901 19.45993515863156 C6.077125655165236 19.471471436790143, 5.717382020706572 19.483007714948727, 5.1875000000000036 19.5 M6.436869289623901 19.45993515863156 C6.184888603909453 19.46801568877177, 5.9329079181950055 19.47609621891198, 5.1875000000000036 19.5 M5.1875000000000036 19.5 C5.187500000000002 19.5, 5.187500000000001 19.5, 5.1875 19.5 M5.1875000000000036 19.5 C5.187500000000003 19.5, 5.187500000000001 19.5, 5.1875 19.5 M5.1875 19.5 C2.531668691689399 19.5, -0.1241626166212022 19.5, -5.1874999999999964 19.5 M5.1875 19.5 C2.5734873748372333 19.5, -0.040525250325533335 19.5, -5.1874999999999964 19.5 M-5.1874999999999964 19.5 C-5.54707939052605 19.488468988824653, -5.906658781052103 19.476937977649307, -6.4368692896238935 19.45993515863156 M-5.1874999999999964 19.5 C-5.496434526751988 19.49009307103164, -5.805369053503979 19.480186142063282, -6.4368692896238935 19.45993515863156 M-6.4368692896238935 19.45993515863156 C-6.851800487695177 19.4199072449814, -7.26673168576646 19.37987933133124, -7.681104652847871 19.3399052695533 M-6.4368692896238935 19.45993515863156 C-6.726629219710109 19.431982366663444, -7.016389149796324 19.40402957469533, -7.681104652847871 19.3399052695533 M-7.681104652847871 19.3399052695533 C-7.982200253623598 19.291226467851136, -8.283295854399325 19.242547666148976, -8.915093259676759 19.140403561325773 M-7.681104652847871 19.3399052695533 C-7.932108982780137 19.2993248360575, -8.183113312712402 19.258744402561703, -8.915093259676759 19.140403561325773 M-8.915093259676759 19.140403561325773 C-9.175271929889835 19.081019477674133, -9.43545060010291 19.02163539402249, -10.133764386235388 18.862249829261074 M-8.915093259676759 19.140403561325773 C-9.314865569100878 19.049158140457838, -9.714637878524996 18.957912719589903, -10.133764386235388 18.862249829261074 M-10.133764386235388 18.862249829261074 C-10.462088494064648 18.76480495746576, -10.790412601893909 18.66736008567045, -11.332110251460593 18.506587066708043 M-10.133764386235388 18.862249829261074 C-10.546969708024427 18.73961265871308, -10.960175029813467 18.616975488165092, -11.332110251460593 18.506587066708043 M-11.332110251460593 18.506587066708043 C-11.783250037427921 18.340563455181602, -12.234389823395249 18.174539843655158, -12.505206595147797 18.074876768247425 M-11.332110251460593 18.506587066708043 C-11.668988394630453 18.382612795954117, -12.005866537800316 18.258638525200187, -12.505206595147797 18.074876768247425 M-12.505206595147797 18.074876768247425 C-12.788772247623227 17.949350665572766, -13.072337900098654 17.823824562898107, -13.64823291279238 17.568892924097174 M-12.505206595147797 18.074876768247425 C-12.892431940990457 17.903463594274644, -13.279657286833116 17.73205042030186, -13.64823291279238 17.568892924097174 M-13.64823291279238 17.568892924097174 C-13.921217796481796 17.426476885131567, -14.194202680171212 17.284060846165964, -14.75649226407678 16.990714730406097 M-13.64823291279238 17.568892924097174 C-13.873053600739624 17.45160411519962, -14.097874288686869 17.334315306302067, -14.75649226407678 16.990714730406097 M-14.75649226407678 16.990714730406097 C-15.0356455106217 16.821490391863996, -15.31479875716662 16.6522660533219, -15.825430573605686 16.3427180453909 M-14.75649226407678 16.990714730406097 C-15.130457237836266 16.764014965650972, -15.504422211595754 16.53731520089585, -15.825430573605686 16.3427180453909 M-15.825430573605686 16.3427180453909 C-16.117936909250663 16.138678288040154, -16.41044324489564 15.934638530689407, -16.850655344578712 15.627565626425156 M-15.825430573605686 16.3427180453909 C-16.142899544226506 16.121265434496056, -16.460368514847325 15.899812823601215, -16.850655344578712 15.627565626425156 M-16.850655344578712 15.627565626425156 C-17.165356340560162 15.376599956675161, -17.48005733654161 15.125634286925166, -17.82795370850187 14.848196188198125 M-16.850655344578712 15.627565626425156 C-17.150774743665668 15.38822839216593, -17.450894142752624 15.148891157906705, -17.82795370850187 14.848196188198125 M-17.82795370850187 14.848196188198125 C-18.186667370434108 14.522421931474666, -18.545381032366347 14.196647674751208, -18.753309736767974 14.007812326905697 M-17.82795370850187 14.848196188198125 C-18.0772098603947 14.621828346005442, -18.326466012287533 14.39546050381276, -18.753309736767974 14.007812326905697 M-18.753309736767974 14.007812326905697 C-19.006020685950702 13.746867523919743, -19.25873163513343 13.485922720933791, -19.622920942968655 13.109867360095677 M-18.753309736767974 14.007812326905697 C-18.94826940252668 13.806500465523595, -19.143229068285386 13.605188604141492, -19.622920942968655 13.109867360095677 M-19.622920942968655 13.109867360095677 C-19.803222896100703 12.898074426475, -19.983524849232754 12.686281492854324, -20.43321390812658 12.158051136245307 M-19.622920942968655 13.109867360095677 C-19.801714018770326 12.899846839644816, -19.980507094571998 12.689826319193953, -20.43321390812658 12.158051136245307 M-20.43321390812658 12.158051136245307 C-20.678081427145194 11.82995096865026, -20.92294894616381 11.501850801055214, -21.180858964640635 11.156274872382316 M-20.43321390812658 12.158051136245307 C-20.640404304126218 11.880434881039172, -20.847594700125857 11.602818625833034, -21.180858964640635 11.156274872382316 M-21.180858964640635 11.156274872382316 C-21.428096936675782 10.776450954644982, -21.675334908710933 10.396627036907647, -21.862783878604244 10.108655082055249 M-21.180858964640635 11.156274872382316 C-21.408474947218256 10.806595599693678, -21.636090929795877 10.45691632700504, -21.862783878604244 10.108655082055249 M-21.862783878604244 10.108655082055249 C-22.068078376750712 9.744133912274046, -22.273372874897184 9.379612742492842, -22.4761864742735 9.019496659696289 M-21.862783878604244 10.108655082055249 C-22.08889084791512 9.707179262230405, -22.314997817226 9.30570344240556, -22.4761864742735 9.019496659696289 M-22.4761864742735 9.019496659696289 C-22.59285320616205 8.777235694661549, -22.709519938050597 8.534974729626809, -23.01854614880834 7.893275190886686 M-22.4761864742735 9.019496659696289 C-22.640697296123925 8.677886418156188, -22.805208117974345 8.336276176616085, -23.01854614880834 7.893275190886686 M-23.01854614880834 7.893275190886686 C-23.18986229511087 7.470120997347077, -23.361178441413397 7.046966803807467, -23.487634229970325 6.73461856121551 M-23.01854614880834 7.893275190886686 C-23.122872891760043 7.63558611877562, -23.22719963471175 7.377897046664556, -23.487634229970325 6.73461856121551 M-23.487634229970325 6.73461856121551 C-23.612096520648947 6.359757972064501, -23.73655881132757 5.984897382913493, -23.88152313421488 5.5482879393051325 M-23.487634229970325 6.73461856121551 C-23.56774528825738 6.493336817618659, -23.647856346544433 6.252055074021809, -23.88152313421488 5.5482879393051325 M-23.88152313421488 5.5482879393051325 C-23.958369470160576 5.255239554931514, -24.035215806106272 4.962191170557894, -24.198594287545557 4.339158212148136 M-23.88152313421488 5.5482879393051325 C-23.953518882280363 5.273736948776857, -24.025514630345846 4.999185958248581, -24.198594287545557 4.339158212148136 M-24.198594287545557 4.339158212148136 C-24.293793876981816 3.850328440833306, -24.388993466418075 3.3614986695184768, -24.437544776581777 3.112197953150904 M-24.198594287545557 4.339158212148136 C-24.293773002531328 3.8504356267247544, -24.388951717517095 3.361713041301373, -24.437544776581777 3.112197953150904 M-24.437544776581777 3.112197953150904 C-24.48152064429408 2.7711298071915893, -24.525496512006384 2.430061661232275, -24.597392702509364 1.872449005199809 M-24.437544776581777 3.112197953150904 C-24.49231925688265 2.6873779003818976, -24.54709373718352 2.2625578476128907, -24.597392702509364 1.872449005199809 M-24.597392702509364 1.872449005199809 C-24.62413256580632 1.4559540503205455, -24.650872429103277 1.039459095441282, -24.677481215913414 0.6250057626472781 M-24.597392702509364 1.872449005199809 C-24.613589882467995 1.620164853215786, -24.629787062426626 1.3678807012317629, -24.677481215913414 0.6250057626472781 M-24.677481215913414 0.6250057626472781 C-24.677481215913414 0.30839577715852573, -24.677481215913414 -0.00821420833022668, -24.677481215913414 -0.6250057626472687 M-24.677481215913414 0.6250057626472781 C-24.677481215913414 0.13592794644904638, -24.677481215913414 -0.3531498697491854, -24.677481215913414 -0.6250057626472687 M-24.677481215913414 -0.6250057626472687 C-24.648955804382947 -1.0693120725320626, -24.62043039285248 -1.5136183824168565, -24.597392702509367 -1.8724490051997822 M-24.677481215913414 -0.6250057626472687 C-24.647059356946464 -1.0988507721400993, -24.616637497979514 -1.57269578163293, -24.597392702509367 -1.8724490051997822 M-24.597392702509367 -1.8724490051997822 C-24.53835821553807 -2.330308828471137, -24.479323728566772 -2.788168651742492, -24.437544776581777 -3.112197953150895 M-24.597392702509367 -1.8724490051997822 C-24.536304313264658 -2.3462384889148478, -24.47521592401995 -2.820027972629913, -24.437544776581777 -3.112197953150895 M-24.437544776581777 -3.112197953150895 C-24.35980399406088 -3.5113804408755094, -24.282063211539977 -3.910562928600124, -24.19859428754556 -4.339158212148126 M-24.437544776581777 -3.112197953150895 C-24.376327132991882 -3.426537614631444, -24.31510948940199 -3.740877276111993, -24.19859428754556 -4.339158212148126 M-24.19859428754556 -4.339158212148126 C-24.088270206132606 -4.7598717493350655, -23.977946124719654 -5.180585286522004, -23.881523134214884 -5.548287939305123 M-24.19859428754556 -4.339158212148126 C-24.095395002004196 -4.732701814770632, -23.99219571646283 -5.126245417393138, -23.881523134214884 -5.548287939305123 M-23.881523134214884 -5.548287939305123 C-23.748388850853114 -5.949267188723371, -23.61525456749135 -6.350246438141619, -23.487634229970332 -6.734618561215485 M-23.881523134214884 -5.548287939305123 C-23.791065952280555 -5.8207305588966225, -23.700608770346225 -6.093173178488122, -23.487634229970332 -6.734618561215485 M-23.487634229970332 -6.734618561215485 C-23.30758158676653 -7.179352071009916, -23.12752894356273 -7.624085580804348, -23.018546148808344 -7.893275190886676 M-23.487634229970332 -6.734618561215485 C-23.378478196623487 -7.004236073970529, -23.26932216327664 -7.273853586725573, -23.018546148808344 -7.893275190886676 M-23.018546148808344 -7.893275190886676 C-22.87207209674754 -8.197431694033583, -22.72559804468674 -8.501588197180489, -22.476186474273504 -9.019496659696282 M-23.018546148808344 -7.893275190886676 C-22.83034250951412 -8.284084074793913, -22.6421388702199 -8.67489295870115, -22.476186474273504 -9.019496659696282 M-22.476186474273504 -9.019496659696282 C-22.33705076965111 -9.266546192271193, -22.19791506502872 -9.513595724846104, -21.862783878604247 -10.108655082055243 M-22.476186474273504 -9.019496659696282 C-22.293872495354414 -9.343213590559367, -22.111558516435323 -9.666930521422453, -21.862783878604247 -10.108655082055243 M-21.862783878604247 -10.108655082055243 C-21.633169472741482 -10.461404469561655, -21.403555066878717 -10.814153857068067, -21.18085896464064 -11.156274872382308 M-21.862783878604247 -10.108655082055243 C-21.629758213198805 -10.466645080270654, -21.39673254779336 -10.824635078486066, -21.18085896464064 -11.156274872382308 M-21.18085896464064 -11.156274872382308 C-20.98945938789611 -11.412732868359829, -20.798059811151578 -11.66919086433735, -20.433213908126586 -12.158051136245302 M-21.18085896464064 -11.156274872382308 C-20.99978127202364 -11.398902483971929, -20.818703579406638 -11.641530095561547, -20.433213908126586 -12.158051136245302 M-20.433213908126586 -12.158051136245302 C-20.21406320461521 -12.415478022618053, -19.994912501103833 -12.672904908990805, -19.622920942968662 -13.10986736009567 M-20.433213908126586 -12.158051136245302 C-20.12745767034142 -12.517209811170549, -19.82170143255626 -12.876368486095796, -19.622920942968662 -13.10986736009567 M-19.622920942968662 -13.10986736009567 C-19.414206787949777 -13.325381860903478, -19.205492632930888 -13.540896361711287, -18.753309736767996 -14.007812326905677 M-19.622920942968662 -13.10986736009567 C-19.41904385557322 -13.320387191451633, -19.21516676817778 -13.530907022807598, -18.753309736767996 -14.007812326905677 M-18.753309736767996 -14.007812326905677 C-18.465236017572465 -14.26943325666612, -18.177162298376935 -14.531054186426564, -17.827953708501887 -14.848196188198107 M-18.753309736767996 -14.007812326905677 C-18.500982171633375 -14.236969545339411, -18.248654606498757 -14.466126763773145, -17.827953708501887 -14.848196188198107 M-17.827953708501887 -14.848196188198107 C-17.594006712189117 -15.034762692166513, -17.360059715876346 -15.221329196134919, -16.85065534457872 -15.627565626425149 M-17.827953708501887 -14.848196188198107 C-17.486564989868594 -15.120444606572823, -17.145176271235297 -15.39269302494754, -16.85065534457872 -15.627565626425149 M-16.85065534457872 -15.627565626425149 C-16.523713610349443 -15.855626027143924, -16.19677187612017 -16.0836864278627, -15.825430573605711 -16.342718045390885 M-16.85065534457872 -15.627565626425149 C-16.584559724850404 -15.813182411653898, -16.318464105122093 -15.998799196882647, -15.825430573605711 -16.342718045390885 M-15.825430573605711 -16.342718045390885 C-15.445674261729915 -16.572928553345797, -15.065917949854118 -16.803139061300705, -14.756492264076789 -16.99071473040609 M-15.825430573605711 -16.342718045390885 C-15.53021479981898 -16.52167958234086, -15.234999026032249 -16.70064111929083, -14.756492264076789 -16.99071473040609 M-14.756492264076789 -16.99071473040609 C-14.487696802914577 -17.130945150322706, -14.218901341752366 -17.271175570239322, -13.64823291279239 -17.56889292409717 M-14.756492264076789 -16.99071473040609 C-14.396943331507499 -17.178291178225408, -14.03739439893821 -17.36586762604472, -13.64823291279239 -17.56889292409717 M-13.64823291279239 -17.56889292409717 C-13.293091204322662 -17.726103623532243, -12.937949495852934 -17.883314322967315, -12.505206595147806 -18.07487676824742 M-13.64823291279239 -17.56889292409717 C-13.331247826868061 -17.709212818607387, -13.014262740943735 -17.849532713117604, -12.505206595147806 -18.07487676824742 M-12.505206595147806 -18.07487676824742 C-12.157300477813635 -18.202909435435288, -11.809394360479466 -18.33094210262316, -11.332110251460618 -18.506587066708033 M-12.505206595147806 -18.07487676824742 C-12.25783541124158 -18.165911650599067, -12.010464227335353 -18.256946532950717, -11.332110251460618 -18.506587066708033 M-11.332110251460618 -18.506587066708033 C-11.08327065317362 -18.580441353293907, -10.834431054886624 -18.654295639879784, -10.133764386235413 -18.862249829261067 M-11.332110251460618 -18.506587066708033 C-11.071110565726103 -18.58405040341873, -10.810110879991587 -18.661513740129426, -10.133764386235413 -18.862249829261067 M-10.133764386235413 -18.862249829261067 C-9.744845798403798 -18.951017959002666, -9.355927210572181 -19.039786088744265, -8.915093259676768 -19.140403561325773 M-10.133764386235413 -18.862249829261067 C-9.713506325339456 -18.958170989220427, -9.293248264443498 -19.05409214917979, -8.915093259676768 -19.140403561325773 M-8.915093259676768 -19.140403561325773 C-8.491062232560843 -19.20895760938015, -8.067031205444918 -19.277511657434523, -7.68110465284788 -19.3399052695533 M-8.915093259676768 -19.140403561325773 C-8.616197787206897 -19.188726663345694, -8.317302314737027 -19.237049765365615, -7.68110465284788 -19.3399052695533 M-7.68110465284788 -19.3399052695533 C-7.343372586413151 -19.372485875820022, -7.0056405199784235 -19.405066482086742, -6.436869289623903 -19.45993515863156 M-7.68110465284788 -19.3399052695533 C-7.295087515323819 -19.377143878556716, -6.9090703777997575 -19.41438248756013, -6.436869289623903 -19.45993515863156 M-6.436869289623903 -19.45993515863156 C-6.053302860733317 -19.47223538743932, -5.669736431842732 -19.484535616247076, -5.187500000000006 -19.5 M-6.436869289623903 -19.45993515863156 C-6.0974314506116585 -19.470820269453007, -5.757993611599414 -19.48170538027446, -5.187500000000006 -19.5 M-5.187500000000006 -19.5 C-5.187500000000004 -19.5, -5.187500000000003 -19.5, -5.1875 -19.5 M-5.187500000000006 -19.5 C-5.187500000000004 -19.5, -5.187500000000003 -19.5, -5.1875 -19.5" stroke="#9370DB" stroke-width="1.3" fill="none" stroke-dasharray="0 0" style=""/></g><g class="label" style="" transform="translate(-12.3125, -12)"><rect/><foreignObject width="24.625" height="24"><div xmlns="http://www.w3.org/1999/xhtml" style="display: table-cell; white-space: nowrap; line-height: 1.5; max-width: 200px; text-align: center;"><span class="nodeLabel"><p>You</p></span></div></foreignObject></g></g><g class="node default" id="flowchart-Claude-1" transform="translate(186.89402389526367, 82.31027603149414)"><rect class="basic label-container" style="" x="-54.5390625" y="-27" width="109.078125" height="54"/><g class="label" style="" transform="translate(-24.5390625, -12)"><rect/><foreignObject width="49.078125" height="24"><div xmlns="http://www.w3.org/1999/xhtml" style="display: table-cell; white-space: nowrap; line-height: 1.5; max-width: 200px; text-align: center;"><span class="nodeLabel"><p>Claude</p></span></div></foreignObject></g></g><g class="node default" id="flowchart-MCP-2" transform="translate(537.1830863952637, 82.31027603149414)"><rect class="basic label-container" style="" x="-102.234375" y="-39" width="204.46875" height="78"/><g class="label" style="" transform="translate(-72.234375, -24)"><rect/><foreignObject width="144.46875" height="48"><div xmlns="http://www.w3.org/1999/xhtml" style="display: table-cell; white-space: nowrap; line-height: 1.5; max-width: 200px; text-align: center;"><span class="nodeLabel"><p>TEA Techniques MCP<br />(10 tools)</p></span></div></foreignObject></g></g><g class="node default" id="flowchart-KG-3" transform="translate(914.4721488952637, 82.31027603149414)"><path d="M0,13.206851819093107 a69.9921875,13.206851819093107 0,0,0 139.984375,0 a69.9921875,13.206851819093107 0,0,0 -139.984375,0 l0,52.2068518190931 a69.9921875,13.206851819093107 0,0,0 139.984375,0 l0,-52.2068518190931" class="basic label-container" style="" transform="translate(-69.9921875, -39.31027772863966)"/><g class="label" style="" transform="translate(-62.4921875, -2)"><rect/><foreignObject width="124.984375" height="24"><div xmlns="http://www.w3.org/1999/xhtml" style="display: table-cell; white-space: nowrap; line-height: 1.5; max-width: 200px; text-align: center;"><span class="nodeLabel"><p>Knowledge Graph</p></span></div></foreignObject></g></g></g></g></g></svg>